<svg width="39" height="24" viewBox="0 0 39 24" fill="none" xmlns="http://www.w3.org/2000/svg">
<rect x="0.25" y="0.25" width="38.5" height="23.5" rx="1.75" fill="white"/>
<rect x="0.25" y="0.25" width="38.5" height="23.5" rx="1.75" stroke="#EFEFEF" stroke-width="0.5"/>
<path d="M33.13 18.2666C33.13 20.6 31.2297 22.5 28.8961 22.5H5.85999V5.73336C5.85999 3.40004 7.76026 1.5 10.0939 1.5H33.13V18.2666Z" fill="white"/>
<path d="M25.6291 13.9666H27.3794C27.4293 13.9666 27.546 13.95 27.596 13.95C27.9294 13.8833 28.2128 13.5833 28.2128 13.1666C28.2128 12.7667 27.9294 12.4666 27.596 12.3833C27.546 12.3666 27.4461 12.3666 27.3794 12.3666H25.6291V13.9666Z" fill="url(#paint0_linear_1834_1967)"/>
<path d="M27.1793 2.91669C25.5124 2.91669 24.1456 4.26671 24.1456 5.95V9.10004H28.4295C28.5295 9.10004 28.6461 9.10004 28.7294 9.11666C29.6962 9.16661 30.413 9.66668 30.413 10.5334C30.413 11.2166 29.9296 11.8 29.0295 11.9167V11.9499C30.0129 12.0166 30.7631 12.5666 30.7631 13.4167C30.7631 14.3333 29.9296 14.9333 28.8295 14.9333H24.1289V21.1H28.5795C30.2463 21.1 31.6131 19.75 31.6131 18.0666V2.91669H27.1793Z" fill="url(#paint1_linear_1834_1967)"/>
<path d="M27.996 10.7333C27.996 10.3333 27.7127 10.0666 27.3794 10.0167C27.346 10.0167 27.2626 9.99995 27.2127 9.99995H25.6291V11.4667H27.2127C27.2626 11.4667 27.3627 11.4667 27.3794 11.45C27.7127 11.4 27.996 11.1333 27.996 10.7333Z" fill="url(#paint2_linear_1834_1967)"/>
<path d="M10.4106 2.91669C8.7437 2.91669 7.37689 4.26671 7.37689 5.95V13.4333C8.22695 13.85 9.11035 14.1167 9.99385 14.1167C11.044 14.1167 11.6107 13.4834 11.6107 12.6167V9.08332H14.211V12.6C14.211 13.9666 13.361 15.0834 10.4773 15.0834C8.72697 15.0834 7.36017 14.7 7.36017 14.7V21.0833H11.8107C13.4776 21.0833 14.8444 19.7333 14.8444 18.05V2.91669H10.4106Z" fill="url(#paint3_linear_1834_1967)"/>
<path d="M18.7948 2.91669C17.1279 2.91669 15.7611 4.26671 15.7611 5.95V9.91666C16.5279 9.26662 17.8613 8.84996 20.0116 8.94997C21.1617 9.00003 22.3952 9.31668 22.3952 9.31668V10.6C21.7785 10.2834 21.0451 9.99995 20.0949 9.93327C18.4614 9.81664 17.4779 10.6166 17.4779 12.0166C17.4779 13.4333 18.4614 14.2333 20.0949 14.1C21.0451 14.0333 21.7785 13.7333 22.3952 13.4333V14.7167C22.3952 14.7167 21.1784 15.0333 20.0116 15.0834C17.8613 15.1833 16.5279 14.7666 15.7611 14.1167V21.1166H20.2117C21.8785 21.1166 23.2453 19.7666 23.2453 18.0833V2.91669H18.7948Z" fill="url(#paint4_linear_1834_1967)"/>
<defs>
<linearGradient id="paint0_linear_1834_1967" x1="24.1429" y1="15.4879" x2="31.6333" y2="15.4879" gradientUnits="userSpaceOnUse">
<stop stop-color="#007940"/>
<stop offset="0.23" stop-color="#00873F"/>
<stop offset="0.74" stop-color="#40A737"/>
<stop offset="1" stop-color="#5CB531"/>
</linearGradient>
<linearGradient id="paint1_linear_1834_1967" x1="24.1425" y1="21.101" x2="31.6336" y2="21.101" gradientUnits="userSpaceOnUse">
<stop stop-color="#007940"/>
<stop offset="0.23" stop-color="#00873F"/>
<stop offset="0.74" stop-color="#40A737"/>
<stop offset="1" stop-color="#5CB531"/>
</linearGradient>
<linearGradient id="paint2_linear_1834_1967" x1="24.1427" y1="13.0522" x2="31.6334" y2="13.0522" gradientUnits="userSpaceOnUse">
<stop stop-color="#007940"/>
<stop offset="0.23" stop-color="#00873F"/>
<stop offset="0.74" stop-color="#40A737"/>
<stop offset="1" stop-color="#5CB531"/>
</linearGradient>
<linearGradient id="paint3_linear_1834_1967" x1="7.37332" y1="21.2327" x2="14.9798" y2="21.2327" gradientUnits="userSpaceOnUse">
<stop stop-color="#1F286F"/>
<stop offset="0.48" stop-color="#004E94"/>
<stop offset="0.83" stop-color="#0066B1"/>
<stop offset="1" stop-color="#006FBC"/>
</linearGradient>
<linearGradient id="paint4_linear_1834_1967" x1="15.718" y1="20.9835" x2="23.1056" y2="20.9835" gradientUnits="userSpaceOnUse">
<stop stop-color="#6C2C2F"/>
<stop offset="0.17" stop-color="#882730"/>
<stop offset="0.57" stop-color="#BE1833"/>
<stop offset="0.86" stop-color="#DC0436"/>
<stop offset="1" stop-color="#E60039"/>
</linearGradient>
</defs>
</svg>
