<?xml version="1.0" encoding="UTF-8"?> <svg xmlns="http://www.w3.org/2000/svg" width="120" height="40" viewBox="0 0 120 40" fill="none"><rect x="0.5" y="0.499023" width="119" height="39" rx="6.5" fill="white" stroke="#000001"></rect><path d="M24.9999 19.8994C24.9999 16.9994 27.2999 15.5994 27.4999 15.5994C26.1999 13.5994 24.0999 13.3994 23.2999 13.3994C21.5999 13.1994 19.8999 14.3994 18.9999 14.3994C18.0999 14.3994 16.6999 13.3994 15.1999 13.3994C13.2999 13.3994 11.4999 14.4994 10.4999 16.1994C8.49994 19.6994 9.99994 24.7994 11.8999 27.5994C12.8999 28.9994 13.9999 30.4994 15.4999 30.4994C16.8999 30.3994 17.4999 29.5994 19.1999 29.5994C20.8999 29.5994 21.3999 30.4994 22.8999 30.4994C24.3999 30.4994 25.3999 29.0994 26.3999 27.6994C27.4999 26.0994 27.9999 24.5994 27.9999 24.4994C27.9999 24.4994 24.9999 23.2994 24.9999 19.8994Z" fill="#000001"></path><path d="M22.1999 11.4994C22.9999 10.4994 23.4999 9.19941 23.3999 7.89941C22.2999 7.89941 20.8999 8.69941 20.0999 9.59941C19.3999 10.3994 18.6999 11.7994 18.8999 13.0994C20.0999 13.1994 21.2999 12.3994 22.1999 11.4994Z" fill="#000001"></path><path d="M42.3 27.0994H37.6L36.5 30.4994H34.5L39 18.0994H41L45.5 30.4994H43.5L42.3 27.0994ZM38.1 25.5994H41.9L40 20.0994H39.9L38.1 25.5994Z" fill="#000001"></path><path d="M55.2 25.9994C55.2 28.7994 53.7 30.5994 51.4 30.5994C50.1 30.5994 49.1 29.9994 48.6 28.9994V33.4994H46.7V21.4994H48.5V22.9994C49 21.9994 50.1 21.3994 51.4 21.3994C53.6 21.2994 55.2 23.1994 55.2 25.9994ZM53.2 25.9994C53.2 24.1994 52.3 22.9994 50.8 22.9994C49.4 22.9994 48.4 24.1994 48.4 25.9994C48.4 27.7994 49.4 28.9994 50.8 28.9994C52.3 28.9994 53.2 27.7994 53.2 25.9994Z" fill="#000001"></path><path d="M65.1 25.9994C65.1 28.7994 63.6 30.5994 61.3 30.5994C60 30.5994 59 29.9994 58.5 28.9994V33.4994H56.6V21.4994H58.4V22.9994C58.9 21.9994 60 21.3994 61.3 21.3994C63.6 21.2994 65.1 23.1994 65.1 25.9994ZM63.2 25.9994C63.2 24.1994 62.3 22.9994 60.8 22.9994C59.4 22.9994 58.4 24.1994 58.4 25.9994C58.4 27.7994 59.4 28.9994 60.8 28.9994C62.3 28.9994 63.2 27.7994 63.2 25.9994Z" fill="#000001"></path><path d="M71.7 26.9994C71.8 28.1994 73 28.9994 74.7 28.9994C76.3 28.9994 77.4 28.1994 77.4 27.0994C77.4 26.0994 76.7 25.5994 75.1 25.1994L73.5 24.7994C71.2 24.1994 70.2 23.1994 70.2 21.4994C70.2 19.3994 72.1 17.8994 74.7 17.8994C77.3 17.8994 79.1 19.3994 79.2 21.4994H77.3C77.2 20.2994 76.2 19.4994 74.7 19.4994C73.2 19.4994 72.2 20.2994 72.2 21.3994C72.2 22.2994 72.9 22.7994 74.5 23.1994L75.9 23.4994C78.4 24.0994 79.5 25.0994 79.5 26.8994C79.5 29.1994 77.7 30.6994 74.7 30.6994C71.9 30.6994 70.1 29.2994 70 26.9994H71.7Z" fill="#000001"></path><path d="M83.3 19.2994V21.3994H85V22.8994H83.3V27.8994C83.3 28.6994 83.6 28.9994 84.4 28.9994C84.6 28.9994 84.9 28.9994 85 28.9994V30.4994C84.8 30.5994 84.4 30.5994 84 30.5994C82.2 30.5994 81.5 29.8994 81.5 28.1994V22.9994H80.2V21.4994H81.5V19.3994H83.3V19.2994Z" fill="#000001"></path><path d="M86.1 25.9994C86.1 23.1994 87.8 21.3994 90.4 21.3994C93 21.3994 94.7 23.1994 94.7 25.9994C94.7 28.8994 93 30.5994 90.4 30.5994C87.7 30.5994 86.1 28.7994 86.1 25.9994ZM92.8 25.9994C92.8 23.9994 91.9 22.8994 90.4 22.8994C88.9 22.8994 88 23.9994 88 25.9994C88 27.9994 88.9 29.0994 90.4 29.0994C91.9 29.0994 92.8 27.8994 92.8 25.9994Z" fill="#000001"></path><path d="M96.2 21.3994H98V22.9994C98.3 21.9994 99.1 21.3994 100.2 21.3994C100.5 21.3994 100.7 21.3994 100.8 21.4994V23.1994C100.7 23.0994 100.3 23.0994 100 23.0994C98.8 23.0994 98.1 23.8994 98.1 25.1994V30.5994H96.2V21.3994Z" fill="#000001"></path><path d="M109.4 27.7994C109.1 29.3994 107.5 30.5994 105.5 30.5994C102.9 30.5994 101.2 28.7994 101.2 25.9994C101.2 23.1994 102.8 21.2994 105.4 21.2994C107.9 21.2994 109.5 22.9994 109.5 25.7994V26.3994H103.1V26.4994C103.1 27.9994 104.1 29.0994 105.5 29.0994C106.5 29.0994 107.3 28.5994 107.6 27.7994H109.4ZM103.1 25.0994H107.6C107.6 23.6994 106.7 22.7994 105.4 22.7994C104.1 22.7994 103.2 23.7994 103.1 25.0994Z" fill="#000001"></path><path d="M37.8 8.69941C39.6 8.69941 40.6 9.79941 40.6 11.6994C40.6 13.5994 39.6 14.6994 37.8 14.6994H35.6V8.69941H37.8ZM36.6 13.8994H37.7C38.9 13.8994 39.7 13.0994 39.7 11.7994C39.7 10.4994 39 9.69941 37.7 9.69941H36.6V13.8994Z" fill="#000001"></path><path d="M41.7 12.3994C41.7 10.8994 42.5 10.0994 43.8 10.0994C45.1 10.0994 45.9 10.9994 45.9 12.3994C45.9 13.8994 45.1 14.6994 43.8 14.6994C42.5 14.7994 41.7 13.8994 41.7 12.3994ZM45 12.3994C45 11.3994 44.6 10.8994 43.8 10.8994C43 10.8994 42.6 11.4994 42.6 12.3994C42.6 13.3994 43 13.9994 43.8 13.9994C44.6 13.9994 45 13.3994 45 12.3994Z" fill="#000001"></path><path d="M51.6 14.6994H50.7L49.8 11.3994H49.7L48.8 14.6994H47.9L46.7 10.1994H47.6L48.4 13.5994H48.5L49.4 10.1994H50.3L51.2 13.5994H51.3L52.1 10.1994H53L51.6 14.6994Z" fill="#000001"></path><path d="M53.9 10.1994H54.8V10.8994H54.9C55.1 10.3994 55.6 10.0994 56.2 10.0994C57.2 10.0994 57.8 10.6994 57.8 11.7994V14.6994H56.9V11.9994C56.9 11.2994 56.6 10.8994 55.9 10.8994C55.2 10.8994 54.8 11.2994 54.8 11.9994V14.5994H53.9V10.1994Z" fill="#000001"></path><path d="M59.1 8.39941H60V14.6994H59.1V8.39941Z" fill="#000001"></path><path d="M61.2 12.3994C61.2 10.8994 62 10.0994 63.3 10.0994C64.6 10.0994 65.4 10.9994 65.4 12.3994C65.4 13.8994 64.6 14.6994 63.3 14.6994C62 14.7994 61.2 13.8994 61.2 12.3994ZM64.6 12.3994C64.6 11.3994 64.2 10.8994 63.4 10.8994C62.6 10.8994 62.2 11.4994 62.2 12.3994C62.2 13.3994 62.6 13.9994 63.4 13.9994C64.1 13.9994 64.6 13.3994 64.6 12.3994Z" fill="#000001"></path><path d="M66.4 13.3994C66.4 12.5994 67 12.0994 68.1 12.0994L69.3 11.9994V11.5994C69.3 11.0994 69 10.8994 68.4 10.8994C67.9 10.8994 67.6 11.0994 67.5 11.3994H66.6C66.7 10.5994 67.4 10.0994 68.4 10.0994C69.5 10.0994 70.2 10.6994 70.2 11.5994V14.6994H69.3V14.0994H69.2C68.9 14.5994 68.4 14.7994 67.8 14.7994C67 14.7994 66.4 14.1994 66.4 13.3994ZM69.3 12.9994V12.5994L68.2 12.6994C67.6 12.6994 67.3 12.9994 67.3 13.2994C67.3 13.6994 67.7 13.8994 68.1 13.8994C68.8 13.9994 69.3 13.5994 69.3 12.9994Z" fill="#000001"></path><path d="M71.3 12.3994C71.3 10.9994 72 10.0994 73.2 10.0994C73.8 10.0994 74.3 10.3994 74.6 10.8994H74.7V8.39941H75.6V14.6994H74.7V13.9994H74.6C74.3 14.4994 73.8 14.7994 73.2 14.7994C72.1 14.7994 71.3 13.8994 71.3 12.3994ZM72.3 12.3994C72.3 13.3994 72.8 13.8994 73.5 13.8994C74.2 13.8994 74.7 13.2994 74.7 12.3994C74.7 11.4994 74.2 10.8994 73.5 10.8994C72.7 10.8994 72.3 11.4994 72.3 12.3994Z" fill="#000001"></path><path d="M79.2 12.3994C79.2 10.8994 80 10.0994 81.3 10.0994C82.6 10.0994 83.4 10.9994 83.4 12.3994C83.4 13.8994 82.6 14.6994 81.3 14.6994C80 14.7994 79.2 13.8994 79.2 12.3994ZM82.6 12.3994C82.6 11.3994 82.2 10.8994 81.4 10.8994C80.6 10.8994 80.2 11.4994 80.2 12.3994C80.2 13.3994 80.6 13.9994 81.4 13.9994C82.1 13.9994 82.6 13.3994 82.6 12.3994Z" fill="#000001"></path><path d="M84.7 10.1994H85.6V10.8994H85.7C85.9 10.3994 86.4 10.0994 87 10.0994C88 10.0994 88.6 10.6994 88.6 11.7994V14.6994H87.7V11.9994C87.7 11.2994 87.4 10.8994 86.7 10.8994C86 10.8994 85.6 11.2994 85.6 11.9994V14.5994H84.7V10.1994Z" fill="#000001"></path><path d="M93.5 9.09941V10.1994H94.5V10.9994H93.5V13.2994C93.5 13.7994 93.7 13.9994 94.1 13.9994C94.2 13.9994 94.3 13.9994 94.4 13.9994V14.6994C94.3 14.6994 94.1 14.6994 93.9 14.6994C92.9 14.6994 92.5 14.3994 92.5 13.4994V10.9994H91.8V10.2994H92.5V9.09941H93.5Z" fill="#000001"></path><path d="M95.7 8.39941H96.6V10.8994H96.7C96.9 10.3994 97.4 10.0994 98.1 10.0994C99.1 10.0994 99.7 10.6994 99.7 11.7994V14.6994H98.8V11.9994C98.8 11.2994 98.5 10.8994 97.8 10.8994C97.1 10.8994 96.7 11.3994 96.7 11.9994V14.5994H95.8V8.39941H95.7Z" fill="#000001"></path><path d="M104.8 13.4994C104.6 14.2994 103.9 14.7994 102.8 14.7994C101.5 14.7994 100.7 13.8994 100.7 12.4994C100.7 11.0994 101.5 10.0994 102.8 10.0994C104.1 10.0994 104.8 10.9994 104.8 12.3994V12.6994H101.6C101.6 13.4994 102.1 13.9994 102.8 13.9994C103.3 13.9994 103.7 13.7994 103.9 13.4994H104.8ZM101.6 11.9994H103.9C103.9 11.2994 103.4 10.7994 102.8 10.7994C102.1 10.8994 101.7 11.2994 101.6 11.9994Z" fill="#000001"></path></svg> 