<?xml version="1.0" encoding="UTF-8"?> <svg xmlns="http://www.w3.org/2000/svg" width="135" height="40" viewBox="0 0 135 40" fill="none"><path d="M130 39.499H5C2.48262 39.499 0.5 37.4294 0.5 34.999V4.99902C0.5 2.48165 2.56962 0.499023 5 0.499023H130C132.517 0.499023 134.5 2.56864 134.5 4.99902V34.999C134.5 37.5229 132.524 39.499 130 39.499Z" fill="black" stroke="#A6A6A6"></path><path d="M47.4 10.1994C47.4 10.9994 47.2 11.6994 46.7 12.1994C46.1 12.7994 45.4 13.0994 44.5 13.0994C43.6 13.0994 42.9 12.7994 42.3 12.1994C41.7 11.5994 41.4 10.8994 41.4 9.99941C41.4 9.09941 41.7 8.39941 42.3 7.79941C42.9 7.19941 43.6 6.89941 44.5 6.89941C44.9 6.89941 45.3 6.99941 45.7 7.19941C46.1 7.39941 46.4 7.59941 46.6 7.89941L46.1 8.39941C45.7 7.89941 45.2 7.69941 44.5 7.69941C43.9 7.69941 43.3 7.89941 42.9 8.39941C42.4 8.79941 42.2 9.39941 42.2 10.0994C42.2 10.7994 42.4 11.3994 42.9 11.7994C43.4 12.1994 43.9 12.4994 44.5 12.4994C45.2 12.4994 45.7 12.2994 46.2 11.7994C46.5 11.4994 46.7 11.0994 46.7 10.5994H44.5V9.79941H47.4C47.4 9.89941 47.4 10.0994 47.4 10.1994Z" fill="white"></path><path d="M52 7.69941H49.3V9.59941H51.8V10.2994H49.3V12.1994H52V12.9994H48.5V6.99941H52V7.69941Z" fill="white"></path><path d="M55.3 12.9994H54.5V7.69941H52.8V6.99941H57V7.69941H55.3V12.9994Z" fill="white"></path><path d="M59.9 12.9994V6.99941H60.7V12.9994H59.9Z" fill="white"></path><path d="M64.1 12.9994H63.3V7.69941H61.6V6.99941H65.7V7.69941H64V12.9994H64.1Z" fill="white"></path><path d="M73.6 12.1994C73 12.7994 72.3 13.0994 71.4 13.0994C70.5 13.0994 69.8 12.7994 69.2 12.1994C68.6 11.5994 68.3 10.8994 68.3 9.99941C68.3 9.09941 68.6 8.39941 69.2 7.79941C69.8 7.19941 70.5 6.89941 71.4 6.89941C72.3 6.89941 73 7.19941 73.6 7.79941C74.2 8.39941 74.5 9.09941 74.5 9.99941C74.5 10.8994 74.2 11.5994 73.6 12.1994ZM69.8 11.6994C70.2 12.0994 70.8 12.3994 71.4 12.3994C72 12.3994 72.6 12.1994 73 11.6994C73.4 11.2994 73.7 10.6994 73.7 9.99941C73.7 9.29941 73.5 8.69941 73 8.29941C72.6 7.89941 72 7.59941 71.4 7.59941C70.8 7.59941 70.2 7.79941 69.8 8.29941C69.4 8.69941 69.1 9.29941 69.1 9.99941C69.1 10.6994 69.3 11.2994 69.8 11.6994Z" fill="white"></path><path d="M75.6 12.9994V6.99941H76.5L79.4 11.6994V6.99941H80.2V12.9994H79.4L76.3 8.09941V12.9994H75.6Z" fill="white"></path><path d="M47.4 10.1994C47.4 10.9994 47.2 11.6994 46.7 12.1994C46.1 12.7994 45.4 13.0994 44.5 13.0994C43.6 13.0994 42.9 12.7994 42.3 12.1994C41.7 11.5994 41.4 10.8994 41.4 9.99941C41.4 9.09941 41.7 8.39941 42.3 7.79941C42.9 7.19941 43.6 6.89941 44.5 6.89941C44.9 6.89941 45.3 6.99941 45.7 7.19941C46.1 7.39941 46.4 7.59941 46.6 7.89941L46.1 8.39941C45.7 7.89941 45.2 7.69941 44.5 7.69941C43.9 7.69941 43.3 7.89941 42.9 8.39941C42.4 8.79941 42.2 9.39941 42.2 10.0994C42.2 10.7994 42.4 11.3994 42.9 11.7994C43.4 12.1994 43.9 12.4994 44.5 12.4994C45.2 12.4994 45.7 12.2994 46.2 11.7994C46.5 11.4994 46.7 11.0994 46.7 10.5994H44.5V9.79941H47.4C47.4 9.89941 47.4 10.0994 47.4 10.1994Z" stroke="white" stroke-width="0.2" stroke-miterlimit="10"></path><path d="M52 7.69941H49.3V9.59941H51.8V10.2994H49.3V12.1994H52V12.9994H48.5V6.99941H52V7.69941Z" stroke="white" stroke-width="0.2" stroke-miterlimit="10"></path><path d="M55.3 12.9994H54.5V7.69941H52.8V6.99941H57V7.69941H55.3V12.9994Z" stroke="white" stroke-width="0.2" stroke-miterlimit="10"></path><path d="M59.9 12.9994V6.99941H60.7V12.9994H59.9Z" stroke="white" stroke-width="0.2" stroke-miterlimit="10"></path><path d="M64.1 12.9994H63.3V7.69941H61.6V6.99941H65.7V7.69941H64V12.9994H64.1Z" stroke="white" stroke-width="0.2" stroke-miterlimit="10"></path><path d="M73.6 12.1994C73 12.7994 72.3 13.0994 71.4 13.0994C70.5 13.0994 69.8 12.7994 69.2 12.1994C68.6 11.5994 68.3 10.8994 68.3 9.99941C68.3 9.09941 68.6 8.39941 69.2 7.79941C69.8 7.19941 70.5 6.89941 71.4 6.89941C72.3 6.89941 73 7.19941 73.6 7.79941C74.2 8.39941 74.5 9.09941 74.5 9.99941C74.5 10.8994 74.2 11.5994 73.6 12.1994ZM69.8 11.6994C70.2 12.0994 70.8 12.3994 71.4 12.3994C72 12.3994 72.6 12.1994 73 11.6994C73.4 11.2994 73.7 10.6994 73.7 9.99941C73.7 9.29941 73.5 8.69941 73 8.29941C72.6 7.89941 72 7.59941 71.4 7.59941C70.8 7.59941 70.2 7.79941 69.8 8.29941C69.4 8.69941 69.1 9.29941 69.1 9.99941C69.1 10.6994 69.3 11.2994 69.8 11.6994Z" stroke="white" stroke-width="0.2" stroke-miterlimit="10"></path><path d="M75.6 12.9994V6.99941H76.5L79.4 11.6994V6.99941H80.2V12.9994H79.4L76.3 8.09941V12.9994H75.6Z" stroke="white" stroke-width="0.2" stroke-miterlimit="10"></path><path d="M68.1 21.7986C65.7 21.7986 63.8 23.5986 63.8 26.0986C63.8 28.4986 65.7 30.3986 68.1 30.3986C70.5 30.3986 72.4 28.5986 72.4 26.0986C72.4 23.4986 70.5 21.7986 68.1 21.7986ZM68.1 28.5986C66.8 28.5986 65.7 27.4986 65.7 25.9986C65.7 24.4986 66.8 23.3986 68.1 23.3986C69.4 23.3986 70.5 24.3986 70.5 25.9986C70.5 27.4986 69.4 28.5986 68.1 28.5986ZM58.8 21.7986C56.4 21.7986 54.5 23.5986 54.5 26.0986C54.5 28.4986 56.4 30.3986 58.8 30.3986C61.2 30.3986 63.1 28.5986 63.1 26.0986C63.1 23.4986 61.2 21.7986 58.8 21.7986ZM58.8 28.5986C57.5 28.5986 56.4 27.4986 56.4 25.9986C56.4 24.4986 57.5 23.3986 58.8 23.3986C60.1 23.3986 61.2 24.3986 61.2 25.9986C61.2 27.4986 60.1 28.5986 58.8 28.5986ZM47.7 23.0986V24.8986H52C51.9 25.8986 51.5 26.6986 51 27.1986C50.4 27.7986 49.4 28.4986 47.7 28.4986C45 28.4986 43 26.3986 43 23.6986C43 20.9986 45.1 18.8986 47.7 18.8986C49.1 18.8986 50.2 19.4986 51 20.1986L52.3 18.8986C51.2 17.8986 49.8 17.0986 47.8 17.0986C44.2 17.0986 41.1 20.0986 41.1 23.6986C41.1 27.2986 44.2 30.2986 47.8 30.2986C49.8 30.2986 51.2 29.6986 52.4 28.3986C53.6 27.1986 54 25.4986 54 24.1986C54 23.7986 54 23.3986 53.9 23.0986H47.7ZM93.1 24.4986C92.7 23.4986 91.7 21.7986 89.5 21.7986C87.3 21.7986 85.5 23.4986 85.5 26.0986C85.5 28.4986 87.3 30.3986 89.7 30.3986C91.6 30.3986 92.8 29.1986 93.2 28.4986L91.8 27.4986C91.3 28.1986 90.7 28.6986 89.7 28.6986C88.7 28.6986 88.1 28.2986 87.6 27.3986L93.3 24.9986L93.1 24.4986ZM87.3 25.8986C87.3 24.2986 88.6 23.3986 89.5 23.3986C90.2 23.3986 90.9 23.7986 91.1 24.2986L87.3 25.8986ZM82.6 29.9986H84.5V17.4986H82.6V29.9986ZM79.6 22.6986C79.1 22.1986 78.3 21.6986 77.3 21.6986C75.2 21.6986 73.2 23.5986 73.2 25.9986C73.2 28.3986 75.1 30.1986 77.3 30.1986C78.3 30.1986 79.1 29.6986 79.5 29.1986H79.6V29.7986C79.6 31.3986 78.7 32.2986 77.3 32.2986C76.2 32.2986 75.4 31.4986 75.2 30.7986L73.6 31.4986C74.1 32.5986 75.3 33.9986 77.4 33.9986C79.6 33.9986 81.4 32.6986 81.4 29.5986V21.9986H79.6V22.6986ZM77.4 28.5986C76.1 28.5986 75 27.4986 75 25.9986C75 24.4986 76.1 23.3986 77.4 23.3986C78.7 23.3986 79.7 24.4986 79.7 25.9986C79.7 27.4986 78.7 28.5986 77.4 28.5986ZM101.8 17.4986H97.3V29.9986H99.2V25.2986H101.8C103.9 25.2986 105.9 23.7986 105.9 21.3986C105.9 18.9986 103.9 17.4986 101.8 17.4986ZM101.9 23.4986H99.2V19.1986H101.9C103.3 19.1986 104.1 20.3986 104.1 21.2986C104 22.3986 103.2 23.4986 101.9 23.4986ZM113.4 21.6986C112 21.6986 110.6 22.2986 110.1 23.5986L111.8 24.2986C112.2 23.5986 112.8 23.3986 113.5 23.3986C114.5 23.3986 115.4 23.9986 115.5 24.9986V25.0986C115.2 24.8986 114.4 24.5986 113.6 24.5986C111.8 24.5986 110 25.5986 110 27.3986C110 29.0986 111.5 30.1986 113.1 30.1986C114.4 30.1986 115 29.5986 115.5 28.9986H115.6V29.9986H117.4V25.1986C117.2 22.9986 115.5 21.6986 113.4 21.6986ZM113.2 28.5986C112.6 28.5986 111.7 28.2986 111.7 27.4986C111.7 26.4986 112.8 26.1986 113.7 26.1986C114.5 26.1986 114.9 26.3986 115.4 26.5986C115.2 27.7986 114.2 28.5986 113.2 28.5986ZM123.7 21.9986L121.6 27.3986H121.5L119.3 21.9986H117.3L120.6 29.5986L118.7 33.7986H120.6L125.7 21.9986H123.7ZM106.9 29.9986H108.8V17.4986H106.9V29.9986Z" fill="white"></path><path d="M10.4701 7.3991C10.1441 7.79021 9.97961 8.2909 10.0101 8.7991V30.9191C9.97961 31.4273 10.1441 31.928 10.4701 32.3191L10.5401 32.3891L22.9301 20.0091V19.7191L10.5401 7.3291L10.4701 7.3991Z" fill="url(#paint0_linear_11973_37685)"></path><path d="M27.0301 24.1391L22.9301 20.0091V19.7191L27.0301 15.5791L27.1201 15.6291L32.0301 18.4191C33.4301 19.2091 33.4301 20.5091 32.0301 21.3091L27.1401 24.0891L27.0301 24.1391Z" fill="url(#paint1_linear_11973_37685)"></path><path d="M27.15 24.0794L22.93 19.8594L10.47 32.3194C10.7553 32.5702 11.1194 32.7135 11.4991 32.7245C11.8789 32.7354 12.2506 32.6134 12.55 32.3794L27.16 24.0794" fill="url(#paint2_linear_11973_37685)"></path><path d="M27.15 15.6389L12.54 7.33894C12.2406 7.10495 11.8689 6.98289 11.4891 6.99384C11.1094 7.0048 10.7453 7.14808 10.46 7.39894L22.93 19.8589L27.15 15.6389Z" fill="url(#paint3_linear_11973_37685)"></path><path opacity="0.2" d="M27.0301 23.9893L12.5401 32.2393C12.2514 32.4551 11.9006 32.5718 11.5401 32.5718C11.1796 32.5718 10.8288 32.4551 10.5401 32.2393L10.4701 32.3093L10.5401 32.3793C10.8281 32.5967 11.1792 32.7143 11.5401 32.7143C11.901 32.7143 12.252 32.5967 12.5401 32.3793L27.1501 24.0793L27.0301 23.9893Z" fill="black"></path><path opacity="0.12" d="M10.4701 32.1793C10.1441 31.7882 9.97961 31.2875 10.0101 30.7793V30.9293C9.97961 31.4375 10.1441 31.9382 10.4701 32.3293L10.5401 32.2593L10.4701 32.1793Z" fill="black"></path><path opacity="0.12" d="M32.03 21.1594L27.03 23.9894L27.12 24.0794L32.03 21.2994C32.3086 21.1685 32.5478 20.9665 32.7234 20.7136C32.8989 20.4608 33.0047 20.1661 33.03 19.8594C32.9738 20.1381 32.8544 20.4002 32.6811 20.6255C32.5077 20.8509 32.285 21.0335 32.03 21.1594Z" fill="black"></path><path opacity="0.25" d="M12.54 7.47883L32.03 18.5588C32.285 18.6847 32.5077 18.8673 32.681 19.0927C32.8544 19.318 32.9738 19.5801 33.03 19.8588C33.0047 19.5521 32.8989 19.2574 32.7233 19.0046C32.5478 18.7517 32.3086 18.5497 32.03 18.4188L12.54 7.33882C11.14 6.54882 10 7.20882 10 8.80883V8.95882C10.03 7.34882 11.15 6.68883 12.54 7.47883Z" fill="white"></path><defs><linearGradient id="paint0_linear_11973_37685" x1="21.8301" y1="8.5691" x2="5.05005" y2="25.3491" gradientUnits="userSpaceOnUse"><stop stop-color="#00A0FF"></stop><stop offset="0.01" stop-color="#00A1FF"></stop><stop offset="0.26" stop-color="#00BEFF"></stop><stop offset="0.51" stop-color="#00D2FF"></stop><stop offset="0.76" stop-color="#00DFFF"></stop><stop offset="1" stop-color="#00E3FF"></stop></linearGradient><linearGradient id="paint1_linear_11973_37685" x1="33.8601" y1="19.8591" x2="9.67006" y2="19.8591" gradientUnits="userSpaceOnUse"><stop stop-color="#FFE000"></stop><stop offset="0.41" stop-color="#FFBD00"></stop><stop offset="0.78" stop-color="#FFA500"></stop><stop offset="1" stop-color="#FF9C00"></stop></linearGradient><linearGradient id="paint2_linear_11973_37685" x1="24.86" y1="22.1594" x2="2.09997" y2="44.9094" gradientUnits="userSpaceOnUse"><stop stop-color="#FF3A44"></stop><stop offset="1" stop-color="#C31162"></stop></linearGradient><linearGradient id="paint3_linear_11973_37685" x1="7.32996" y1="0.0389352" x2="17.49" y2="10.1989" gradientUnits="userSpaceOnUse"><stop stop-color="#32A071"></stop><stop offset="0.07" stop-color="#2DA771"></stop><stop offset="0.48" stop-color="#15CF74"></stop><stop offset="0.8" stop-color="#06E775"></stop><stop offset="1" stop-color="#00F076"></stop></linearGradient></defs></svg> 