<?xml version="1.0" encoding="UTF-8"?> <svg xmlns="http://www.w3.org/2000/svg" width="32" height="33" viewBox="0 0 32 33" fill="none"><g clip-path="url(#clip0_7389_33394)"><path d="M29.7026 17.0312C29.4926 16.7084 29.4926 16.2916 29.7026 15.9688L30.8712 14.1726C31.9357 12.5365 31.2185 10.3383 29.3991 9.64191L27.3979 8.87566C27.0383 8.73791 26.7931 8.4006 26.7734 8.01604L26.6631 5.87605C26.5626 3.92707 24.6904 2.5697 22.8089 3.07595L20.7396 3.63232C20.3679 3.73219 19.9712 3.60338 19.7292 3.30394L18.382 1.63739C17.1551 0.119651 14.8429 0.122088 13.6181 1.63739L12.2708 3.30401C12.0288 3.60351 11.6323 3.73219 11.2604 3.63238L9.19098 3.07601C7.30581 2.56901 5.43707 3.93088 5.33682 5.87612L5.22651 8.01611C5.20663 8.4006 4.96157 8.73798 4.60201 8.87566L2.6009 9.64191C0.777719 10.3398 0.0662231 12.5397 1.12865 14.1726L2.29734 15.9688C2.50727 16.2915 2.50727 16.7085 2.29734 17.0312L1.12884 18.8274C0.0642232 20.4637 0.781719 22.6618 2.60096 23.3581L4.6022 24.1243C4.96176 24.2621 5.20688 24.5994 5.22669 24.9839L5.337 27.1239C5.4375 29.0733 7.30999 30.4301 9.19117 29.924L11.2605 29.3677C11.6324 29.2679 12.0289 29.3966 12.271 29.696L13.6181 31.3625C14.8453 32.8807 17.1574 32.8776 18.3821 31.3625L19.7292 29.696C19.9712 29.3967 20.368 29.268 20.7397 29.3677L22.8091 29.924C24.6938 30.4312 26.5629 29.0694 26.6633 27.1239L26.7736 24.9839C26.7934 24.5994 27.0385 24.2621 27.3981 24.1244L29.3992 23.3581C31.2222 22.6603 31.9338 20.4604 30.8715 18.8274L29.7026 17.0312ZM28.6522 21.4074L26.651 22.1736C25.5204 22.6065 24.7497 23.6674 24.6874 24.8763L24.5771 27.0163C24.5451 27.6364 23.9498 28.0676 23.3513 27.9069L21.2819 27.3505C20.1129 27.036 18.8656 27.4414 18.1047 28.3829L16.7576 30.0494C16.3673 30.5322 15.6321 30.5312 15.2425 30.0494L13.8955 28.3829C13.3056 27.6531 12.4236 27.2455 11.5122 27.2455C11.2479 27.2455 10.981 27.2797 10.7181 27.3505L8.64867 27.9069C8.04893 28.0679 7.45493 27.6351 7.42293 27.0163L7.31262 24.8763C7.25031 23.6674 6.4795 22.6065 5.349 22.1736L3.34777 21.4073C2.76796 21.1853 2.54177 20.4858 2.87964 19.9665L4.04826 18.1704C4.70845 17.1556 4.70845 15.8442 4.04826 14.8296L2.87964 13.0335C2.54102 12.5131 2.76914 11.8141 3.34783 11.5926L5.34907 10.8263C6.47962 10.3935 7.25037 9.3326 7.31268 8.12367L7.42299 5.98368C7.45493 5.36362 8.05024 4.93237 8.64874 5.09312L10.7182 5.64949C11.8872 5.96393 13.1344 5.55856 13.8954 4.61713L15.2426 2.95057C15.6329 2.46782 16.3682 2.46882 16.7576 2.95057L18.1048 4.61719C18.8659 5.55862 20.1129 5.96399 21.282 5.64949L23.3515 5.09312C23.9511 4.93206 24.5452 5.36487 24.5772 5.98368L24.6874 8.12367C24.7497 9.3326 25.5205 10.3935 26.651 10.8263L28.6523 11.5926C29.2321 11.8145 29.4582 12.5141 29.1204 13.0335L27.9519 14.8296C27.2916 15.8442 27.2916 17.1556 27.9518 18.1704L29.1204 19.9665C29.4589 20.487 29.2309 21.1858 28.6522 21.4074Z" fill="#f59a57"></path><path d="M21.2177 11.177C20.8099 10.7691 20.1486 10.7691 19.7407 11.177L9.99286 20.9248C9.58505 21.3326 9.58505 21.9939 9.99292 22.4018C10.1969 22.6057 10.4642 22.7077 10.7314 22.7077C10.9987 22.7077 11.266 22.6057 11.4699 22.4018L21.2177 12.6539C21.6256 12.2461 21.6256 11.5848 21.2177 11.177Z" fill="#f59a57"></path><path d="M11.7758 10.8711C10.624 10.8711 9.68701 11.8082 9.68701 12.9599C9.68701 14.1117 10.6241 15.0487 11.7758 15.0487C12.9276 15.0487 13.8646 14.1117 13.8646 12.9599C13.8647 11.8082 12.9276 10.8711 11.7758 10.8711Z" fill="#f59a57"></path><path d="M19.4349 18.5312C18.2831 18.5312 17.3461 19.4683 17.3461 20.6201C17.3461 21.7719 18.2831 22.7089 19.4349 22.7089C20.5866 22.7089 21.5237 21.7718 21.5237 20.6201C21.5238 19.4683 20.5867 18.5312 19.4349 18.5312Z" fill="#f59a57"></path></g><defs><clipPath id="clip0_7389_33394"><rect width="32" height="32" fill="white" transform="translate(0 0.5)"></rect></clipPath></defs></svg> 