<?xml version="1.0" encoding="UTF-8"?> <svg xmlns="http://www.w3.org/2000/svg" width="24" height="24" viewBox="0 0 24 24" fill="none"><path d="M4.5 3.25C4.11291 3.25 3.78941 3.54459 3.75328 3.92999L3.54361 6.16649C2.75222 6.85318 2.25 7.86793 2.25 9C2.25 9.87906 2.55323 10.6885 3.05974 11.3277L2.25328 19.93C2.23357 20.1402 2.30335 20.3489 2.44547 20.505C2.5876 20.661 2.78891 20.75 3 20.75H9C9.21109 20.75 9.41241 20.661 9.55453 20.505C9.69666 20.3489 9.76643 20.1402 9.74673 19.93L8.94026 11.3277C9.44678 10.6885 9.75 9.87906 9.75 9C9.75 7.86793 9.24778 6.85318 8.4564 6.16649L8.24673 3.92999C8.2106 3.54459 7.8871 3.25 7.5 3.25H4.5ZM5.00714 6.62557L5.18298 4.75H6.81703L6.99286 6.62557C7.01319 6.84246 7.12683 7.0398 7.30421 7.16626C7.8782 7.57547 8.25 8.24432 8.25 9C8.25 9.60534 8.01194 10.1535 7.62276 10.5586C7.47166 10.7158 7.3965 10.9311 7.41686 11.1482L8.1764 19.25H3.8236L4.58315 11.1482C4.6035 10.9311 4.52834 10.7158 4.37725 10.5586C3.98806 10.1535 3.75 9.60534 3.75 9C3.75 8.24432 4.12181 7.57547 4.6958 7.16626C4.87318 7.0398 4.98681 6.84246 5.00714 6.62557Z" fill="black"></path><path d="M15 7.25C14.5858 7.25 14.25 7.58579 14.25 8V10.7723C13.7549 11.0044 13.3094 11.3284 12.9623 11.7695C12.493 12.3656 12.25 13.1167 12.25 14C12.25 15.2919 12.8218 16.6757 13.3328 17.671C13.6457 18.2804 13.995 18.876 14.39 19.4363C14.5308 19.6328 14.7582 19.75 15 19.75H19C19.2501 19.75 19.4838 19.6253 19.6231 19.4175C20.0097 18.8323 20.3566 18.2184 20.6706 17.5916C21.1741 16.5865 21.75 15.1984 21.75 14C21.75 13.1167 21.5069 12.3656 21.0377 11.7695C20.6906 11.3284 20.2451 11.0044 19.75 10.7723V8C19.75 7.58579 19.4142 7.25 19 7.25H15ZM18.588 18.25H15.3992C15.2167 17.9683 14.9411 17.5194 14.6672 16.9859C14.1782 16.0334 13.75 14.9172 13.75 14C13.75 13.4027 13.9091 12.9917 14.141 12.6972C14.3782 12.3958 14.7388 12.1569 15.2355 11.9926C15.5426 11.8911 15.75 11.6041 15.75 11.2806V8.75H18.25V11.2806C18.25 11.6041 18.4574 11.8911 18.7645 11.9926C19.2612 12.1569 19.6218 12.3958 19.859 12.6972C20.0908 12.9917 20.25 13.4027 20.25 14C20.25 14.8167 19.8259 15.9287 19.3294 16.9198C19.0518 17.4741 18.7723 17.9502 18.588 18.25Z" fill="black"></path></svg> 