<?xml version="1.0" encoding="UTF-8"?> <svg xmlns="http://www.w3.org/2000/svg" width="24" height="24" viewBox="0 0 24 24" fill="none"><path fill-rule="evenodd" clip-rule="evenodd" d="M4.81247 1C2.81085 1 0.926592 2.54443 1.03897 4.7511C1.52988 14.391 9.55509 22.4754 19.2496 22.9623C21.4556 23.0731 23.0001 21.1895 23.0001 19.1877V18.4199C23.0001 15.8682 20.7018 14.2055 18.558 13.8962L18.4958 13.887C17.1568 13.6853 15.6239 13.9621 14.538 15.0479L14.033 15.5529C11.6427 14.3156 9.68458 12.3575 8.44724 9.96711L8.95218 9.46216C10.0381 8.37628 10.3148 6.84336 10.1131 5.50431L10.1039 5.4421C9.79467 3.29832 8.13188 1 5.58019 1H4.81247ZM3.03638 4.64938C2.99252 3.78809 3.74215 3 4.81247 3H5.58019C6.77632 3 7.89856 4.16201 8.12442 5.72766L8.13542 5.80223C8.27123 6.70379 8.05431 7.53161 7.53797 8.04795L6.53029 9.05563C6.23603 9.34988 6.15477 9.79562 6.32624 10.1748C7.82833 13.4962 10.5039 16.1718 13.8253 17.6739C14.2045 17.8454 14.6502 17.7641 14.9445 17.4698L15.9522 16.4622C16.4685 15.9458 17.2963 15.7289 18.1979 15.8647L18.2725 15.8757C19.8381 16.1016 21.0001 17.2238 21.0001 18.4199V19.1877C21.0001 20.2578 20.212 21.0081 19.3499 20.9648C10.6858 20.5297 3.47535 13.2695 3.03638 4.64938Z" fill="black"></path></svg> 