<?xml version="1.0" encoding="UTF-8"?> <svg xmlns="http://www.w3.org/2000/svg" width="24" height="24" viewBox="0 0 24 24" fill="none"><path d="M8 10C8 10.5523 8.44771 11 9 11C9.55229 11 10 10.5523 10 10C10 9.44772 9.55229 9 9 9C8.44771 9 8 9.44772 8 10Z" fill="black"></path><path d="M15 9C14.4477 9 14 9.44772 14 10C14 10.5523 14.4477 11 15 11C15.5523 11 16 10.5523 16 10C16 9.44772 15.5523 9 15 9Z" fill="black"></path><path d="M3.25 9.25L2 9.25C1.0335 9.25 0.25 10.0335 0.25 11V16C0.25 16.9665 1.0335 17.75 2 17.75H3.25V19C3.25 19.4142 3.58579 19.75 4 19.75C4.41421 19.75 4.75 19.4142 4.75 19V17.75H19.25V19C19.25 19.4142 19.5858 19.75 20 19.75C20.4142 19.75 20.75 19.4142 20.75 19V17.75H22C22.9665 17.75 23.75 16.9665 23.75 16V11C23.75 10.0335 22.9665 9.25 22 9.25H20.75V7C20.75 6.0335 19.9665 5.25 19 5.25H5C4.0335 5.25 3.25 6.0335 3.25 7V9.25ZM4.75 7C4.75 6.86193 4.86193 6.75 5 6.75H19C19.1381 6.75 19.25 6.86193 19.25 7V9.41841C18.6588 9.69927 18.25 10.3019 18.25 11V13.25H5.75V11C5.75 10.3019 5.34124 9.69927 4.75 9.41841V7ZM20 16.25C19.8619 16.25 19.75 16.1381 19.75 16V11C19.75 10.8619 19.8619 10.75 20 10.75H22C22.1381 10.75 22.25 10.8619 22.25 11V16C22.25 16.1381 22.1381 16.25 22 16.25H20ZM4.25 16C4.25 16.1381 4.13807 16.25 4 16.25H2C1.86193 16.25 1.75 16.1381 1.75 16V11C1.75 10.8619 1.86193 10.75 2 10.75L4 10.75C4.13807 10.75 4.25 10.8619 4.25 11V16ZM5.75 16.25V14.75H11.25V16.25H5.75ZM12.75 14.75H18.25V16.25H12.75V14.75Z" fill="black"></path></svg> 