<?xml version="1.0" encoding="UTF-8"?> <svg xmlns="http://www.w3.org/2000/svg" width="32" height="32" viewBox="0 0 32 32" fill="none"><rect width="32" height="32" rx="16" fill="#F59A57" fill-opacity="0.1"></rect><path fill-rule="evenodd" clip-rule="evenodd" d="M10.0961 7C8.4559 7 6.91184 8.26552 7.00392 10.0737C7.4062 17.9728 13.9825 24.5972 21.9266 24.9962C23.7344 25.087 25 23.5435 25 21.9032V21.2741C25 19.1832 23.1166 17.8207 21.3599 17.5673L21.3089 17.5598C20.2117 17.3945 18.9555 17.6213 18.0657 18.511L17.6519 18.9248C15.6931 17.9109 14.0886 16.3064 13.0746 14.3477L13.4884 13.934C14.3782 13.0442 14.605 11.7881 14.4397 10.6909L14.4322 10.6399C14.1788 8.88327 12.8162 7 10.7252 7H10.0961ZM8.6407 9.99035C8.60476 9.28459 9.21905 8.63882 10.0961 8.63882H10.7252C11.7054 8.63882 12.625 9.59099 12.8101 10.8739L12.8191 10.935C12.9304 11.6738 12.7526 12.3521 12.3295 12.7752L11.5038 13.6009C11.2627 13.842 11.1961 14.2072 11.3366 14.5179C12.5675 17.2396 14.76 19.4319 17.4817 20.6628C17.7924 20.8033 18.1577 20.7367 18.3988 20.4956L19.2246 19.6699C19.6477 19.2468 20.326 19.069 21.0648 19.1803L21.1259 19.1893C22.4089 19.3744 23.3611 20.294 23.3611 21.2741V21.9032C23.3611 22.78 22.7153 23.3949 22.0088 23.3594C14.909 23.0029 9.00042 17.0537 8.6407 9.99035Z" fill="#F59A57"></path></svg> 