<?xml version="1.0" encoding="UTF-8"?> <svg xmlns="http://www.w3.org/2000/svg" width="24" height="16" viewBox="0 0 24 16" fill="none"><g clip-path="url(#clip0_11509_39780)"><mask id="mask0_11509_39780" style="mask-type:luminance" maskUnits="userSpaceOnUse" x="-1" y="-4" width="26" height="22"><rect x="-1" y="-4" width="26" height="22" fill="white"></rect></mask><g mask="url(#mask0_11509_39780)"><path fill-rule="evenodd" clip-rule="evenodd" d="M5.5 -4H18.5V18H5.5V-4Z" fill="#F7FCFF"></path><path fill-rule="evenodd" clip-rule="evenodd" d="M11.9808 2.41663L12 13.4166H11.5129L11.8118 10.6944C9.62603 11.1381 8.62351 11.2481 8.80421 11.0243C8.98491 10.8005 9.12729 10.4833 9.23137 10.0727L6.3125 7.87566C6.61945 7.87131 6.89779 7.78536 7.14751 7.61781C7.39722 7.45025 7.27236 6.86961 6.77293 5.87588L8.24663 6.11777L8.80421 5.43413L9.91609 6.74701H10.4159L9.91609 3.73977L10.812 4.30434L11.9808 2.41663ZM11.9808 2.41663L13.188 4.30434L14.0839 3.73977L13.5841 6.74701H14.0839L15.1958 5.43413L15.7534 6.11777L17.2271 5.87588C16.7276 6.86961 16.6028 7.45025 16.8525 7.61781C17.1022 7.78536 17.3805 7.87131 17.6875 7.87566L14.7686 10.0727C14.8727 10.4833 15.0151 10.8005 15.1958 11.0243C15.3765 11.2481 14.374 11.1381 12.1882 10.6944L12.4871 13.4166H12L11.9808 2.41663Z" fill="#E31D1C"></path><path fill-rule="evenodd" clip-rule="evenodd" d="M18.5 -4H25V18H18.5V-4Z" fill="#E31D1C"></path><path fill-rule="evenodd" clip-rule="evenodd" d="M-1 -4H5.5V18H-1V-4Z" fill="#E31D1C"></path></g></g><defs><clipPath id="clip0_11509_39780"><rect width="24" height="16" fill="white"></rect></clipPath></defs></svg> 