<?xml version="1.0" encoding="UTF-8"?> <svg xmlns="http://www.w3.org/2000/svg" width="24" height="24" viewBox="0 0 24 24" fill="none"><path d="M1 8.25C0.585786 8.25 0.25 8.58579 0.25 9C0.25 9.41421 0.585786 9.75 1 9.75H5.83339L3.22025 17.7676C3.09189 18.1614 3.3071 18.5847 3.70092 18.7131C4.09475 18.8414 4.51806 18.6262 4.64641 18.2324L5.19984 16.5344L12 13.9189L18.8002 16.5344L19.3536 18.2324C19.4819 18.6262 19.9053 18.8414 20.2991 18.7131C20.6929 18.5847 20.9081 18.1614 20.7797 17.7676L18.1666 9.75H23C23.4142 9.75 23.75 9.41421 23.75 9C23.75 8.58579 23.4142 8.25 23 8.25H1ZM18.2013 14.6969L14.0893 13.1154L17.2852 11.8862L18.2013 14.6969ZM16.8197 10.4581L12 12.3118L7.18027 10.4581L7.41105 9.75H16.5889L16.8197 10.4581ZM6.71482 11.8862L9.91074 13.1154L5.79872 14.6969L6.71482 11.8862Z" fill="black"></path></svg> 