<?xml version="1.0" encoding="UTF-8"?> <svg xmlns="http://www.w3.org/2000/svg" width="210" height="40" viewBox="0 0 210 40" fill="none"><path d="M39.11 31L33.08 12.982H37.31L41.27 24.754L45.176 12.982H49.46L53.384 24.754L57.326 12.982H61.556L55.544 31H51.26L47.318 19.174L43.376 31H39.11Z" fill="#282828"></path><path d="M71.1894 31.468C69.5574 31.468 68.0514 31.042 66.6714 30.19C65.3034 29.338 64.2114 28.192 63.3954 26.752C62.5914 25.3 62.1894 23.716 62.1894 22C62.1894 20.272 62.5914 18.682 63.3954 17.23C64.2114 15.778 65.3034 14.626 66.6714 13.774C68.0514 12.922 69.5574 12.496 71.1894 12.496C72.8214 12.496 74.3214 12.922 75.6894 13.774C77.0694 14.626 78.1614 15.778 78.9654 17.23C79.7814 18.682 80.1894 20.272 80.1894 22C80.1894 23.716 79.7814 25.3 78.9654 26.752C78.1614 28.192 77.0694 29.338 75.6894 30.19C74.3214 31.042 72.8214 31.468 71.1894 31.468ZM71.1894 27.148C72.0534 27.148 72.8394 26.914 73.5474 26.446C74.2674 25.966 74.8314 25.336 75.2394 24.556C75.6594 23.764 75.8694 22.912 75.8694 22C75.8694 21.064 75.6594 20.2 75.2394 19.408C74.8194 18.616 74.2494 17.986 73.5294 17.518C72.8094 17.05 72.0294 16.816 71.1894 16.816C70.3254 16.816 69.5334 17.056 68.8134 17.536C68.1054 18.004 67.5414 18.64 67.1214 19.444C66.7134 20.236 66.5094 21.088 66.5094 22C66.5094 22.948 66.7194 23.818 67.1394 24.61C67.5714 25.39 68.1474 26.008 68.8674 26.464C69.5874 26.92 70.3614 27.148 71.1894 27.148Z" fill="#282828"></path><path d="M90.9824 31.468C89.3504 31.468 87.8444 31.042 86.4644 30.19C85.0964 29.338 84.0044 28.192 83.1884 26.752C82.3844 25.3 81.9824 23.716 81.9824 22C81.9824 20.272 82.3844 18.682 83.1884 17.23C84.0044 15.778 85.0964 14.626 86.4644 13.774C87.8444 12.922 89.3504 12.496 90.9824 12.496C92.6144 12.496 94.1144 12.922 95.4824 13.774C96.8624 14.626 97.9544 15.778 98.7584 17.23C99.5744 18.682 99.9824 20.272 99.9824 22C99.9824 23.716 99.5744 25.3 98.7584 26.752C97.9544 28.192 96.8624 29.338 95.4824 30.19C94.1144 31.042 92.6144 31.468 90.9824 31.468ZM90.9824 27.148C91.8464 27.148 92.6324 26.914 93.3404 26.446C94.0604 25.966 94.6244 25.336 95.0324 24.556C95.4524 23.764 95.6624 22.912 95.6624 22C95.6624 21.064 95.4524 20.2 95.0324 19.408C94.6124 18.616 94.0424 17.986 93.3224 17.518C92.6024 17.05 91.8224 16.816 90.9824 16.816C90.1184 16.816 89.3264 17.056 88.6064 17.536C87.8984 18.004 87.3344 18.64 86.9144 19.444C86.5064 20.236 86.3024 21.088 86.3024 22C86.3024 22.948 86.5124 23.818 86.9324 24.61C87.3644 25.39 87.9404 26.008 88.6604 26.464C89.3804 26.92 90.1544 27.148 90.9824 27.148Z" fill="#282828"></path><path d="M120.837 4V31H116.517V28.696C115.905 29.56 115.155 30.238 114.267 30.73C113.379 31.222 112.371 31.468 111.243 31.468C109.527 31.468 107.943 31.042 106.491 30.19C105.051 29.338 103.905 28.192 103.053 26.752C102.201 25.3 101.775 23.716 101.775 22C101.775 20.284 102.201 18.7 103.053 17.248C103.905 15.796 105.051 14.644 106.491 13.792C107.943 12.94 109.527 12.514 111.243 12.514C112.371 12.514 113.379 12.76 114.267 13.252C115.155 13.744 115.905 14.422 116.517 15.286V4H120.837ZM111.297 27.31C112.221 27.31 113.049 27.076 113.781 26.608C114.525 26.128 115.101 25.486 115.509 24.682C115.929 23.866 116.139 22.972 116.139 22C116.139 21.016 115.929 20.122 115.509 19.318C115.101 18.502 114.525 17.86 113.781 17.392C113.049 16.912 112.221 16.672 111.297 16.672C110.385 16.672 109.539 16.912 108.759 17.392C107.979 17.872 107.355 18.52 106.887 19.336C106.431 20.14 106.203 21.028 106.203 22C106.203 22.972 106.431 23.866 106.887 24.682C107.355 25.486 107.979 26.128 108.759 26.608C109.539 27.076 110.385 27.31 111.297 27.31Z" fill="#282828"></path><path d="M124.374 13H128.694V14.602C129.054 14.182 129.42 13.846 129.792 13.594C130.176 13.342 130.584 13.156 131.016 13.036C131.448 12.904 131.928 12.838 132.456 12.838C133.668 12.838 134.784 13.096 135.804 13.612C136.824 14.128 137.7 14.86 138.432 15.808C139.176 14.848 140.058 14.116 141.078 13.612C142.098 13.096 143.214 12.838 144.426 12.838C145.938 12.838 147.312 13.222 148.548 13.99C149.784 14.746 150.75 15.778 151.446 17.086C152.154 18.382 152.508 19.798 152.508 21.334V31H148.188V21.334C148.188 20.566 148.026 19.864 147.702 19.228C147.39 18.592 146.946 18.088 146.37 17.716C145.806 17.344 145.158 17.158 144.426 17.158C143.706 17.158 143.052 17.344 142.464 17.716C141.888 18.088 141.432 18.592 141.096 19.228C140.76 19.864 140.592 20.566 140.592 21.334V31H136.272V21.334C136.272 20.566 136.104 19.864 135.768 19.228C135.444 18.592 134.988 18.088 134.4 17.716C133.812 17.344 133.164 17.158 132.456 17.158C131.748 17.158 131.106 17.35 130.53 17.734C129.966 18.118 129.516 18.64 129.18 19.3C128.856 19.948 128.694 20.656 128.694 21.424V31H124.374V13Z" fill="#282828"></path><path d="M173.717 13V31H169.397V28.678C168.773 29.542 168.017 30.226 167.129 30.73C166.241 31.222 165.239 31.468 164.123 31.468C162.407 31.468 160.823 31.042 159.371 30.19C157.931 29.338 156.785 28.192 155.933 26.752C155.081 25.3 154.655 23.716 154.655 22C154.655 20.272 155.081 18.682 155.933 17.23C156.785 15.778 157.931 14.626 159.371 13.774C160.823 12.922 162.407 12.496 164.123 12.496C165.239 12.496 166.241 12.748 167.129 13.252C168.017 13.744 168.773 14.422 169.397 15.286V13H173.717ZM164.177 27.31C165.101 27.31 165.929 27.07 166.661 26.59C167.405 26.11 167.981 25.468 168.389 24.664C168.809 23.848 169.019 22.96 169.019 22C169.019 21.016 168.809 20.122 168.389 19.318C167.981 18.502 167.405 17.86 166.661 17.392C165.929 16.912 165.101 16.672 164.177 16.672C163.253 16.672 162.401 16.912 161.621 17.392C160.841 17.872 160.223 18.52 159.767 19.336C159.311 20.14 159.083 21.028 159.083 22C159.083 22.96 159.311 23.848 159.767 24.664C160.235 25.468 160.859 26.11 161.639 26.59C162.419 27.07 163.265 27.31 164.177 27.31Z" fill="#282828"></path><path d="M188.927 17.374C188.255 16.906 187.493 16.672 186.641 16.672C185.777 16.672 185.021 16.9 184.373 17.356C183.737 17.812 183.245 18.43 182.897 19.21C182.549 19.978 182.375 20.83 182.375 21.766V31H178.019V13.018H182.339V15.16C182.963 14.32 183.701 13.672 184.553 13.216C185.405 12.748 186.341 12.514 187.361 12.514C187.865 12.514 188.285 12.532 188.621 12.568C188.969 12.604 189.305 12.67 189.629 12.766L188.927 17.374Z" fill="#282828"></path><path d="M199.362 17.626L199.344 31H195.024L195.042 17.626H192.36V13.306H195.042L195.024 7.348H199.344L199.362 13.306H202.89V17.626H199.362Z" fill="#282828"></path><path d="M207.27 31.468C206.862 31.468 206.484 31.366 206.136 31.162C205.8 30.97 205.53 30.706 205.326 30.37C205.134 30.022 205.038 29.644 205.038 29.236C205.038 28.84 205.134 28.474 205.326 28.138C205.53 27.79 205.8 27.514 206.136 27.31C206.484 27.106 206.862 27.004 207.27 27.004C207.666 27.004 208.032 27.106 208.368 27.31C208.716 27.514 208.992 27.79 209.196 28.138C209.4 28.474 209.502 28.84 209.502 29.236C209.502 29.644 209.4 30.022 209.196 30.37C208.992 30.706 208.716 30.97 208.368 31.162C208.032 31.366 207.666 31.468 207.27 31.468Z" fill="#282828"></path><path fill-rule="evenodd" clip-rule="evenodd" d="M14.0167 11.4794C14.0056 11.6515 14 11.8251 14 12C14 12.8274 14.1256 13.6255 14.3588 14.3762C14.3581 15.1442 14.2656 15.9108 14.0202 16.5977C13.5325 17.9632 12.5498 18.934 11.7265 19.7473L11.7265 19.7473C11.592 19.8801 11.4618 20.0087 11.3387 20.1342C10.4197 21.0707 9.62884 22.0349 9.29387 23.6417C9.14058 24.3769 9.20706 25.2707 9.44719 26.2554C9.68507 27.2308 10.0764 28.2275 10.5044 29.1361C10.9308 30.0414 11.3827 30.8367 11.7287 31.4063C11.8272 31.5685 11.9168 31.7117 11.9943 31.8333H12.4781C12.1971 31.2382 11.9097 30.5925 11.6528 29.9277C11.15 28.6266 10.725 27.1571 10.725 25.7667C10.725 24.4055 11.0641 23.1771 11.7212 22.2571C12.3901 21.3207 13.3945 20.7111 14.5889 20.7111C15.8253 20.7111 16.7548 21.3655 17.317 22.3493C17.8456 23.2744 18.0556 24.4812 18.0556 25.7667C18.0556 26.4248 17.9952 27.05 17.9325 27.6265C17.9218 27.7254 17.911 27.8223 17.9005 27.9177C17.8477 28.3937 17.7992 28.8315 17.7761 29.2785C17.7325 30.1197 17.7836 30.9401 18.0949 31.8333H18.6962C18.7153 31.7939 18.7351 31.7526 18.7555 31.7094C18.9633 31.2704 19.2313 30.6502 19.4712 29.9291C19.9635 28.4493 20.2813 26.7092 19.8968 25.2479C19.5257 23.838 18.7795 22.7017 17.9655 21.4622C17.8782 21.3292 17.7901 21.1951 17.7016 21.0593C16.9893 19.9662 16.2326 18.7374 15.9781 17.2668C16.8647 18.2796 18.0026 19.0668 19.2946 19.531C19.3663 19.6441 19.4404 19.7591 19.5168 19.8763C19.603 20.0086 19.6921 20.1437 19.7832 20.2817C20.5794 21.4887 21.5253 22.9228 21.9921 24.6965C22.5386 26.773 22.062 29.0051 21.5271 30.6131C21.3785 31.0597 21.221 31.471 21.0704 31.8333H23.8333V25.165C23.3507 23.5618 22.5514 22.2954 21.7544 21.0327L21.5947 20.7794C21.4246 20.509 21.2514 20.2323 21.0836 19.9481C21.3843 19.9824 21.6901 20 22 20C22.5366 20 23.0609 19.9472 23.568 19.8464C23.5812 19.8674 23.5946 19.8885 23.608 19.9097C23.6817 20.0263 23.7571 20.1455 23.8333 20.2668V19.7889C24.6045 19.6081 25.3327 19.3157 26 18.9297V34H0V8H15.0703C14.6843 8.66728 14.3919 9.39549 14.2111 10.1667H13.6904C13.7975 10.5468 13.9098 10.9832 14.0109 11.4526C14.0128 11.4615 14.0148 11.4704 14.0167 11.4794ZM2.16667 10.1667V12.9041C2.2713 12.9299 2.37084 12.9575 2.46525 12.9855C2.61944 13.0312 2.7705 13.0812 2.89969 13.1241L2.89976 13.1241L2.97104 13.1477C3.12332 13.1979 3.24431 13.2362 3.35673 13.2652C3.57347 13.3209 3.70383 13.3264 3.81455 13.3064C3.92182 13.2869 4.10124 13.2269 4.37742 13.0052C4.44691 12.9494 4.52433 12.8511 4.52473 12.5606C4.52517 12.246 4.42743 11.8345 4.24955 11.375C4.07676 10.9288 3.85555 10.5059 3.67242 10.1884L3.65982 10.1667H2.16667ZM2.16667 17.7873V15.1637L2.20946 15.1779L2.29231 15.2053C2.44796 15.2566 2.6285 15.315 2.8169 15.3635C3.20178 15.4625 3.67014 15.5344 4.20056 15.4384C4.73444 15.3417 5.23858 15.0923 5.73369 14.6948C6.46615 14.1069 6.6904 13.2875 6.6914 12.5636C6.69237 11.8637 6.49126 11.164 6.27004 10.5927C6.21348 10.4466 6.15368 10.3041 6.09242 10.1667H7.75948C7.68688 11.135 7.79947 11.9631 7.89328 12.6531L7.89328 12.6531C7.91585 12.8191 7.93733 12.9771 7.95489 13.1271C8.01746 13.6619 8.03726 14.1002 7.96307 14.5395C7.89089 14.9668 7.72022 15.4472 7.33195 16.0296C6.67763 17.0111 5.31496 17.5066 3.82387 17.6955C3.2084 17.7736 2.62792 17.7919 2.16667 17.7873ZM10.0353 12.3097C9.9394 11.5813 9.8529 10.9241 9.93237 10.1667H11.4296C11.5692 10.6099 11.745 11.2229 11.8929 11.909C12.2043 13.3542 12.3344 14.8759 11.9798 15.869C11.6705 16.7349 11.0827 17.3229 10.2526 18.1532C10.1066 18.2992 9.95304 18.4528 9.79223 18.6167C8.75925 19.6693 7.63228 20.9954 7.1728 23.1995C6.92886 24.3696 7.06099 25.6156 7.34222 26.7687C7.62569 27.9311 8.07842 29.0702 8.54423 30.0593C8.85499 30.7191 9.17641 31.3223 9.46685 31.8333H7.77692C7.14696 31.3765 6.771 30.9409 6.5339 30.5332C6.26583 30.0724 6.13602 29.5803 6.07369 29.0021C6.02577 28.5576 6.02059 28.1184 6.01458 27.6091C6.01227 27.4129 6.00983 27.2062 6.00478 26.9848C5.98748 26.2268 5.93707 25.3722 5.70932 24.4612C5.46982 23.5032 5.04518 22.7724 4.43483 22.2917C3.82092 21.8083 3.13662 21.6704 2.55599 21.6795C2.42219 21.6816 2.29199 21.6914 2.16667 21.7069V19.954C2.69835 19.9587 3.37167 19.9369 4.09631 19.845C5.71472 19.6399 7.92706 19.043 9.13472 17.2315C9.67744 16.4174 9.97227 15.6534 10.0995 14.9003C10.2247 14.1592 10.1777 13.481 10.1069 12.8753C10.0841 12.6805 10.0594 12.4929 10.0353 12.3098L10.0353 12.3097ZM15.6123 29.1665C15.5691 30.0015 15.6015 30.8843 15.8366 31.8333H14.8866C14.4847 31.0233 14.0432 30.1025 13.6738 29.1467C13.2052 27.934 12.8917 26.7596 12.8917 25.7667C12.8917 24.7445 13.1484 23.9868 13.4843 23.5165C13.8085 23.0627 14.1944 22.8778 14.5889 22.8778C14.9414 22.8778 15.2035 23.0178 15.4358 23.4243C15.7016 23.8895 15.8889 24.6688 15.8889 25.7667C15.8889 26.3002 15.84 26.827 15.7786 27.3924C15.769 27.4805 15.759 27.5701 15.7489 27.661L15.7488 27.6621L15.7488 27.6621C15.6959 28.1384 15.639 28.6501 15.6123 29.1665ZM4.66104 31.6227C4.70223 31.6935 4.74526 31.7637 4.79017 31.8333H2.16667V23.9096C2.30548 23.8727 2.45051 23.8481 2.58984 23.8459C2.80366 23.8425 2.96346 23.8909 3.09434 23.9939C3.22878 24.0998 3.44962 24.3558 3.60735 24.9867C3.77682 25.6646 3.82261 26.3306 3.83867 27.0343C3.8424 27.1975 3.84438 27.3687 3.84642 27.545C3.85269 28.0873 3.85952 28.6779 3.9195 29.2343C4.00302 30.0091 4.1944 30.8205 4.66104 31.6227Z" fill="#282828"></path><rect x="18" y="8" width="8" height="8" rx="4" fill="#F59A57"></rect></svg> 