<?xml version="1.0" encoding="UTF-8"?> <svg xmlns="http://www.w3.org/2000/svg" width="25" height="24" viewBox="0 0 25 24" fill="none"><path d="M8.33401 7.00003C7.78173 7.00003 7.33401 7.44774 7.33401 8.00003C7.33401 8.55231 7.78173 9.00003 8.33401 9.00003C8.8863 9.00003 9.33401 8.55231 9.33401 8.00003C9.33401 7.44774 8.8863 7.00003 8.33401 7.00003Z" fill="black"></path><path d="M7.33401 12C7.33401 11.4477 7.78173 11 8.33401 11C8.8863 11 9.33401 11.4477 9.33401 12C9.33401 12.5523 8.8863 13 8.33401 13C7.78173 13 7.33401 12.5523 7.33401 12Z" fill="black"></path><path d="M8.33401 15C7.78173 15 7.33401 15.4477 7.33401 16C7.33401 16.5523 7.78173 17 8.33401 17C8.8863 17 9.33401 16.5523 9.33401 16C9.33401 15.4477 8.8863 15 8.33401 15Z" fill="black"></path><path d="M11.334 8.00003C11.334 7.44774 11.7817 7.00003 12.334 7.00003C12.8863 7.00003 13.334 7.44774 13.334 8.00003C13.334 8.55231 12.8863 9.00003 12.334 9.00003C11.7817 9.00003 11.334 8.55231 11.334 8.00003Z" fill="black"></path><path d="M12.334 11C11.7817 11 11.334 11.4477 11.334 12C11.334 12.5523 11.7817 13 12.334 13C12.8863 13 13.334 12.5523 13.334 12C13.334 11.4477 12.8863 11 12.334 11Z" fill="black"></path><path d="M11.334 16C11.334 15.4477 11.7817 15 12.334 15C12.8863 15 13.334 15.4477 13.334 16C13.334 16.5523 12.8863 17 12.334 17C11.7817 17 11.334 16.5523 11.334 16Z" fill="black"></path><path d="M16.334 7.00003C15.7817 7.00003 15.334 7.44774 15.334 8.00003C15.334 8.55231 15.7817 9.00003 16.334 9.00003C16.8863 9.00003 17.334 8.55231 17.334 8.00003C17.334 7.44774 16.8863 7.00003 16.334 7.00003Z" fill="black"></path><path d="M15.334 12C15.334 11.4477 15.7817 11 16.334 11C16.8863 11 17.334 11.4477 17.334 12C17.334 12.5523 16.8863 13 16.334 13C15.7817 13 15.334 12.5523 15.334 12Z" fill="black"></path><path d="M16.334 15C15.7817 15 15.334 15.4477 15.334 16C15.334 16.5523 15.7817 17 16.334 17C16.8863 17 17.334 16.5523 17.334 16C17.334 15.4477 16.8863 15 16.334 15Z" fill="black"></path><path fill-rule="evenodd" clip-rule="evenodd" d="M4.78123 3.1056C4.39624 2.91311 3.93127 2.98856 3.62691 3.29292C3.32254 3.59728 3.24709 4.06225 3.43958 4.44724L3.65597 4.88002C4.0391 5.64628 4.10215 6.53335 3.83123 7.34609C3.47337 8.41968 3.47337 9.58038 3.83123 10.654L3.88533 10.8163C4.14146 11.5847 4.14146 12.4154 3.88533 13.1838L3.83123 13.3461C3.47337 14.4197 3.47337 15.5804 3.83123 16.654C4.10215 17.4667 4.0391 18.3538 3.65597 19.12L3.43958 19.5528C3.24709 19.9378 3.32254 20.4028 3.62691 20.7071C3.93127 21.0115 4.39624 21.0869 4.78123 20.8945L5.214 20.6781C5.98026 20.2949 6.86733 20.2319 7.68008 20.5028C8.75366 20.8607 9.91436 20.8607 10.9879 20.5028L11.1502 20.4487C11.9186 20.1926 12.7494 20.1926 13.5178 20.4487L13.6801 20.5028C14.7537 20.8607 15.9144 20.8607 16.9879 20.5028C17.8007 20.2319 18.6878 20.2949 19.454 20.6781L19.8868 20.8945C20.2718 21.0869 20.7368 21.0115 21.0411 20.7071C21.3455 20.4028 21.4209 19.9378 21.2284 19.5528L21.0121 19.12C20.6289 18.3538 20.5659 17.4667 20.8368 16.654C21.1947 15.5804 21.1947 14.4197 20.8368 13.3461L20.7827 13.1838C20.5266 12.4154 20.5266 11.5847 20.7827 10.8163L20.8368 10.654C21.1947 9.58038 21.1947 8.41968 20.8368 7.34609C20.5659 6.53335 20.6289 5.64628 21.0121 4.88002L21.2284 4.44724C21.4209 4.06225 21.3455 3.59728 21.0411 3.29292C20.7368 2.98856 20.2718 2.91311 19.8868 3.1056L19.454 3.32199C18.6878 3.70512 17.8007 3.76816 16.9879 3.49725C15.9144 3.13938 14.7537 3.13938 13.6801 3.49725L13.5178 3.55134C12.7494 3.80748 11.9186 3.80748 11.1502 3.55134L10.9879 3.49725C9.91436 3.13938 8.75366 3.13938 7.68008 3.49725C6.86733 3.76816 5.98026 3.70512 5.214 3.32199L4.78123 3.1056ZM5.7286 7.97855C5.98457 7.21062 6.05641 6.40171 5.94858 5.6146C6.73569 5.72243 7.5446 5.65059 8.31253 5.39461C8.97558 5.1736 9.69244 5.1736 10.3555 5.39461L10.5178 5.44871C11.6967 5.84169 12.9713 5.84169 14.1502 5.44871L14.3125 5.39461C14.9756 5.1736 15.6924 5.1736 16.3555 5.39461C17.1234 5.65059 17.9323 5.72243 18.7194 5.6146C18.6116 6.40171 18.6834 7.21062 18.9394 7.97855C19.1604 8.6416 19.1604 9.35845 18.9394 10.0215L18.8853 10.1838C18.4924 11.3627 18.4924 12.6373 18.8853 13.8163L18.9394 13.9785C19.1604 14.6416 19.1604 15.3585 18.9394 16.0215C18.6834 16.7894 18.6116 17.5983 18.7194 18.3855C17.9323 18.2776 17.1234 18.3495 16.3555 18.6054C15.6924 18.8265 14.9756 18.8265 14.3125 18.6054L14.1502 18.5513C12.9713 18.1584 11.6967 18.1584 10.5178 18.5513L10.3555 18.6054C9.69244 18.8265 8.97559 18.8265 8.31253 18.6054C7.5446 18.3495 6.73569 18.2776 5.94858 18.3855C6.05642 17.5983 5.98457 16.7894 5.7286 16.0215C5.50758 15.3585 5.50758 14.6416 5.7286 13.9785L5.7827 13.8163C6.17567 12.6373 6.17567 11.3627 5.7827 10.1838L5.7286 10.0215C5.50758 9.35845 5.50758 8.6416 5.7286 7.97855Z" fill="black"></path></svg> 