<?xml version="1.0" encoding="UTF-8"?> <svg xmlns="http://www.w3.org/2000/svg" width="24" height="24" viewBox="0 0 24 24" fill="none"><path d="M7.4067 4.00158L5.0671 12.2737C4.75121 13.3906 5.59033 14.5 6.75105 14.5H7.4347L5.70785 20.544C5.59406 20.9422 5.82468 21.3573 6.22295 21.4711C6.62123 21.5849 7.03634 21.3543 7.15014 20.956L7.30984 20.3971L12.429 17.7028L17.5482 20.3971L17.7079 20.956C17.8216 21.3543 18.2368 21.5849 18.635 21.4711C19.0333 21.3573 19.2639 20.9422 19.1501 20.544L17.4233 14.5H18.1069C19.2677 14.5 20.1068 13.3906 19.7909 12.2737L17.4513 4.00158C17.1164 2.81748 16.0356 2 14.8051 2H10.0529C8.82236 2 7.7416 2.81748 7.4067 4.00158ZM16.2098 15.7129L16.9781 18.402L14.0393 16.8553L16.2098 15.7129ZM12.429 16.0077L9.56431 14.5H15.2937L12.429 16.0077ZM7.87986 18.402L8.64818 15.7129L10.8187 16.8553L7.87986 18.402ZM10.0529 3.5H14.8051C15.3644 3.5 15.8557 3.87158 16.0079 4.40981L18.3475 12.682C18.3926 12.8415 18.2728 13 18.1069 13H6.75105C6.58523 13 6.46536 12.8415 6.51048 12.682L8.85008 4.40981C9.00231 3.87158 9.49356 3.5 10.0529 3.5Z" fill="black"></path><path d="M15.426 11.3116C15.7362 11.0372 15.7653 10.5632 15.4908 10.253C15.2546 9.99476 14.9666 9.7816 14.6664 9.60421C14.1528 9.30071 13.3973 8.9999 12.4291 8.9999C11.4608 8.9999 10.7054 9.30071 10.1917 9.60421C9.89076 9.78206 9.60545 9.99576 9.36731 10.253C9.09287 10.5632 9.12189 11.0372 9.43213 11.3116C9.74066 11.5846 10.2112 11.5573 10.4863 11.2519C10.6306 11.1164 10.7838 10.9967 10.9548 10.8956C11.2874 10.6991 11.782 10.4999 12.4291 10.4999C13.0762 10.4999 13.5707 10.6991 13.9033 10.8956C14.1948 11.0679 14.3602 11.2395 14.3718 11.2519C14.647 11.5573 15.1175 11.5846 15.426 11.3116Z" fill="black"></path></svg> 