<?xml version="1.0" encoding="UTF-8"?> <svg xmlns="http://www.w3.org/2000/svg" width="32" height="32" viewBox="0 0 32 32" fill="none"><rect width="32" height="32" rx="16" fill="#F59A57" fill-opacity="0.1"></rect><path d="M20.477 21.154L22.7954 23.4723L23.9462 22.3215L9.62465 8L8.47387 9.15078L10.7355 11.4124C10.2386 11.7788 9.79653 12.1699 9.40962 12.5569C8.6714 13.2951 8.11959 14.0311 7.75171 14.583C7.46971 15.0059 7.22736 15.4447 7.00024 15.8989C7.22736 16.3531 7.46971 16.7919 7.75171 17.2149C8.11959 17.7667 8.6714 18.5027 9.40962 19.241C10.8816 20.713 13.1514 22.246 16.21 22.246C17.8633 22.246 19.2861 21.798 20.477 21.154ZM19.265 19.9419C18.3735 20.3542 17.3554 20.6185 16.21 20.6185C13.7353 20.6185 11.855 19.3848 10.5604 18.0902C9.91529 17.4451 9.4296 16.7978 9.10582 16.3121C9.00085 16.1547 8.91343 16.015 8.84361 15.8989C8.91343 15.7828 9.00085 15.6432 9.10582 15.4857C9.4296 15 9.91529 14.3527 10.5604 13.7076C10.9534 13.3147 11.4003 12.9273 11.9014 12.5784L13.1688 13.8457C12.827 14.3944 12.6296 15.0422 12.6296 15.7362C12.6296 17.7136 14.2326 19.3166 16.21 19.3166C16.904 19.3166 17.5518 19.1191 18.1004 18.7774L19.265 19.9419ZM14.3789 15.0558L16.8904 17.5673C16.6785 17.6461 16.4493 17.6891 16.21 17.6891C15.1314 17.6891 14.2571 16.8147 14.2571 15.7362C14.2571 15.4969 14.3001 15.2676 14.3789 15.0558Z" fill="#F59A57"></path><path d="M24.6683 17.2149C24.9503 16.7919 25.1926 16.3531 25.4198 15.8989C25.1928 15.4451 24.9503 15.0059 24.6683 14.583C24.3004 14.0311 23.7486 13.2951 23.0104 12.5569C21.5384 11.0848 19.2686 9.55186 16.21 9.55186C15.3396 9.55186 14.533 9.67601 13.7906 9.88758L15.1584 11.2554C15.4961 11.2059 15.8467 11.1793 16.21 11.1793C18.6847 11.1793 20.565 12.413 21.8596 13.7076C22.5047 14.3527 22.9904 15 23.3142 15.4857C23.4192 15.6432 23.5066 15.7828 23.5764 15.8989C23.5066 16.015 23.4192 16.1547 23.3142 16.3121C23.0016 16.781 22.5382 17.4004 21.9261 18.0231L23.0769 19.1739C23.7818 18.4583 24.3116 17.75 24.6683 17.2149Z" fill="#F59A57"></path><path d="M19.7904 15.7362C19.7904 13.7588 18.1874 12.1558 16.21 12.1558C16.1604 12.1558 16.1109 12.1568 16.0618 12.1588L19.7874 15.8844C19.7894 15.8352 19.7904 15.7858 19.7904 15.7362Z" fill="#F59A57"></path></svg> 