<?xml version="1.0" encoding="UTF-8"?> <svg xmlns="http://www.w3.org/2000/svg" width="24" height="24" viewBox="0 0 24 24" fill="none"><path d="M17.9586 11.125L18.6351 8.75716C19.0459 7.31936 19.0462 5.47622 17.7092 4.26599C16.5897 3.25257 14.7687 2.25 12 2.25C9.23133 2.25 7.41029 3.25257 6.29076 4.26599C4.95381 5.47622 4.95409 7.31936 5.36489 8.75716L6.04143 11.125C4.53506 10.628 2.75 11.6918 2.75 13.5137C2.75 13.963 2.86949 14.4321 3.1596 14.8375C3.69249 15.582 5.02226 17.2365 7.09064 18.4197L4.92383 21.0199C4.65866 21.3381 4.70165 21.811 5.01986 22.0762C5.33807 22.3413 5.81099 22.2983 6.07617 21.9801L8.48621 19.0881C9.52115 19.4913 10.694 19.75 12 19.75C13.306 19.75 14.4789 19.4913 15.5138 19.0881L17.9238 21.9801C18.189 22.2983 18.6619 22.3413 18.9801 22.0762C19.2983 21.811 19.3413 21.3381 19.0762 21.0199L16.9094 18.4197C18.9777 17.2365 20.3075 15.582 20.8404 14.8375C21.1305 14.4321 21.25 13.963 21.25 13.5137C21.25 11.6918 19.4649 10.628 17.9586 11.125ZM12 3.75C14.3685 3.75 15.8373 4.59479 16.7026 5.37804C17.4116 6.01981 17.5402 7.12941 17.1928 8.34508L15.9145 12.819C14.8259 13.7378 13.441 14.25 12 14.25C10.559 14.25 9.17409 13.7378 8.08545 12.819L6.80718 8.34508C6.45984 7.12941 6.58845 6.01981 7.29741 5.37804C8.16267 4.59479 9.63147 3.75 12 3.75ZM17.1848 13.6956C17.4723 13.4227 17.7352 13.1261 18.0029 12.8341C18.6227 12.1579 19.75 12.5964 19.75 13.5137C19.75 13.7008 19.701 13.8522 19.6206 13.9644C18.7985 15.113 16.1569 18.25 12 18.25C7.84313 18.25 5.20148 15.113 4.37935 13.9644C4.29904 13.8522 4.25 13.7008 4.25 13.5137C4.25 12.5964 5.37733 12.1579 5.99714 12.8341C6.26484 13.1261 6.52775 13.4227 6.81525 13.6956C8.21378 15.0105 10.0664 15.75 12 15.75C13.9336 15.75 15.7862 15.0105 17.1848 13.6956Z" fill="black"></path></svg> 