<?xml version="1.0" encoding="UTF-8"?> <svg xmlns="http://www.w3.org/2000/svg" width="24" height="24" viewBox="0 0 24 24" fill="none"><path d="M4.43528 17.1665C4.11861 16.9565 3.80638 16.732 3.53064 16.4699L3.52943 16.4688L3.52848 16.4678C3.23544 16.1768 2.76195 16.1774 2.46967 16.4697C2.17678 16.7626 2.17678 17.2374 2.46967 17.5303C2.66902 17.726 2.88933 17.9014 3.1125 18.0688C4.3343 18.9851 7.30805 20.75 12 20.75C16.6919 20.75 19.6657 18.9851 20.8875 18.0688C21.1102 17.9017 21.3301 17.7267 21.5292 17.5315C21.5307 17.5299 21.5303 17.5303 21.5303 17.5303C21.8232 17.2374 21.8232 16.7626 21.5303 16.4697C21.2376 16.1769 20.7631 16.1768 20.4702 16.4692L20.4694 16.4699C20.1818 16.7433 19.8534 16.9774 19.5221 17.1946L17.75 11.8783V10.9149L19.6985 11.3046C21.171 11.599 22.3061 10.0241 21.5611 8.72029L19.2924 4.75H20C20.4142 4.75 20.75 4.41421 20.75 4C20.75 3.58579 20.4142 3.25 20 3.25H18C15.3766 3.25 13.25 5.37665 13.25 8V9.25H5C4.58579 9.25 4.25 9.58579 4.25 10C4.25 10.4142 4.58579 10.75 5 10.75H6.03942L4.43528 17.1665ZM17.5801 4.77687L20.2588 9.4645C20.3652 9.65076 20.203 9.87575 19.9927 9.83368L17.1471 9.26456C16.9268 9.2205 16.6983 9.27754 16.5245 9.41999C16.3507 9.56245 16.25 9.77531 16.25 10V12C16.25 12.0806 16.263 12.1607 16.2885 12.2372L18.1891 17.939C17.7251 18.1589 17.1901 18.3764 16.5836 18.5691C16.4718 18.1168 16.2858 17.5195 15.9833 16.9146C15.3569 15.6618 14.1521 14.25 12 14.25C9.84791 14.25 8.64308 15.6618 8.01668 16.9146C7.71423 17.5195 7.52823 18.1168 7.4164 18.5691C6.80113 18.3736 6.25932 18.1526 5.79073 17.9294L7.58558 10.75H14C14.4142 10.75 14.75 10.4142 14.75 10V8C14.75 6.34736 15.9835 4.98282 17.5801 4.77687ZM15.1313 18.9448C14.2081 19.132 13.1645 19.25 12 19.25C10.8355 19.25 9.79187 19.132 8.86868 18.9448C8.96226 18.5627 9.11595 18.0702 9.35832 17.5854C9.85692 16.5882 10.6521 15.75 12 15.75C13.3479 15.75 14.1431 16.5882 14.6417 17.5854C14.8841 18.0702 15.0377 18.5627 15.1313 18.9448Z" fill="black"></path></svg> 