<?xml version="1.0" encoding="UTF-8"?> <svg xmlns="http://www.w3.org/2000/svg" width="24" height="24" viewBox="0 0 24 24" fill="none"><path d="M8.00002 7.00002C7.44774 7.00002 7.00002 7.44774 7.00002 8.00002C7.00002 8.55231 7.44774 9.00002 8.00002 9.00002C8.55231 9.00002 9.00002 8.55231 9.00002 8.00002C9.00002 7.44774 8.55231 7.00002 8.00002 7.00002Z" fill="black"></path><path d="M7.00002 12C7.00002 12.5523 7.44774 13 8.00002 13C8.55231 13 9.00002 12.5523 9.00002 12C9.00002 11.4477 8.55231 11 8.00002 11C7.44774 11 7.00002 11.4477 7.00002 12Z" fill="black"></path><path d="M8.00002 15C7.44774 15 7.00002 15.4477 7.00002 16C7.00002 16.5523 7.44774 17 8.00002 17C8.55231 17 9.00002 16.5523 9.00002 16C9.00002 15.4477 8.55231 15 8.00002 15Z" fill="black"></path><path d="M11 8.00002C11 8.55231 11.4477 9.00002 12 9.00002C12.5523 9.00002 13 8.55231 13 8.00002C13 7.44774 12.5523 7.00002 12 7.00002C11.4477 7.00002 11 7.44774 11 8.00002Z" fill="black"></path><path d="M12 11C11.4477 11 11 11.4477 11 12C11 12.5523 11.4477 13 12 13C12.5523 13 13 12.5523 13 12C13 11.4477 12.5523 11 12 11Z" fill="black"></path><path d="M11 16C11 16.5523 11.4477 17 12 17C12.5523 17 13 16.5523 13 16C13 15.4477 12.5523 15 12 15C11.4477 15 11 15.4477 11 16Z" fill="black"></path><path d="M16 7.00002C15.4477 7.00002 15 7.44774 15 8.00002C15 8.55231 15.4477 9.00002 16 9.00002C16.5523 9.00002 17 8.55231 17 8.00002C17 7.44774 16.5523 7.00002 16 7.00002Z" fill="black"></path><path d="M15 12C15 12.5523 15.4477 13 16 13C16.5523 13 17 12.5523 17 12C17 11.4477 16.5523 11 16 11C15.4477 11 15 11.4477 15 12Z" fill="black"></path><path d="M16 15C15.4477 15 15 15.4477 15 16C15 16.5523 15.4477 17 16 17C16.5523 17 17 16.5523 17 16C17 15.4477 16.5523 15 16 15Z" fill="black"></path><path d="M4.33543 3.3292C4.04669 3.18483 3.69796 3.24142 3.46969 3.46969C3.24142 3.69796 3.18483 4.04669 3.3292 4.33543L3.54559 4.76821C3.95837 5.59377 4.02629 6.5495 3.73441 7.42514C3.39365 8.44741 3.39365 9.55263 3.73441 10.5749L3.78851 10.7372C4.06175 11.5569 4.06175 12.4431 3.78851 13.2628L3.73441 13.4251C3.39365 14.4474 3.39365 15.5526 3.73441 16.5749C4.02629 17.4505 3.95837 18.4063 3.54559 19.2318L3.3292 19.6646C3.18483 19.9534 3.24142 20.3021 3.46969 20.5303C3.69796 20.7586 4.04669 20.8152 4.33543 20.6708L4.76821 20.4545C5.59377 20.0417 6.5495 19.9737 7.42514 20.2656C8.44741 20.6064 9.55263 20.6064 10.5749 20.2656L10.7372 20.2115C11.5569 19.9383 12.4431 19.9383 13.2628 20.2115L13.4251 20.2656C14.4474 20.6064 15.5526 20.6064 16.5749 20.2656C17.4505 19.9737 18.4063 20.0417 19.2318 20.4545L19.6646 20.6708C19.9534 20.8152 20.3021 20.7586 20.5303 20.5303C20.7586 20.3021 20.8152 19.9534 20.6708 19.6646L20.4545 19.2318C20.0417 18.4063 19.9737 17.4505 20.2656 16.5749C20.6064 15.5526 20.6064 14.4474 20.2656 13.4251L20.2115 13.2628C19.9383 12.4431 19.9383 11.5569 20.2115 10.7372L20.2656 10.5749C20.6064 9.55263 20.6064 8.44741 20.2656 7.42514C19.9737 6.5495 20.0417 5.59377 20.4545 4.76821L20.6708 4.33543C20.8152 4.04669 20.7586 3.69796 20.5303 3.46969C20.3021 3.24142 19.9534 3.18483 19.6646 3.3292L19.2318 3.54559C18.4063 3.95837 17.4505 4.02629 16.5749 3.73441C15.5526 3.39365 14.4474 3.39365 13.4251 3.73441L13.2628 3.78851C12.4431 4.06175 11.5569 4.06175 10.7372 3.78851L10.5749 3.73441C9.55263 3.39365 8.44741 3.39365 7.42514 3.73441C6.5495 4.02629 5.59377 3.95837 4.76821 3.54559L4.33543 3.3292ZM5.15744 7.89948C5.43825 7.05704 5.48634 6.16281 5.3082 5.3082C6.16281 5.48634 7.05704 5.43825 7.89948 5.15744C8.61385 4.91931 9.38619 4.91931 10.1006 5.15744L10.2628 5.21153C11.3905 5.58741 12.6096 5.58741 13.7372 5.21153L13.8995 5.15744C14.6139 4.91931 15.3862 4.91931 16.1006 5.15744C16.943 5.43825 17.8372 5.48634 18.6918 5.30819C18.5137 6.16281 18.5618 7.05704 18.8426 7.89948C19.0807 8.61385 19.0807 9.38619 18.8426 10.1006L18.7885 10.2628C18.4126 11.3905 18.4126 12.6096 18.7885 13.7372L18.8426 13.8995C19.0807 14.6139 19.0807 15.3862 18.8426 16.1006C18.5618 16.943 18.5137 17.8372 18.6918 18.6918C17.8372 18.5137 16.943 18.5618 16.1006 18.8426C15.3862 19.0807 14.6139 19.0807 13.8995 18.8426L13.7372 18.7885C12.6096 18.4126 11.3905 18.4126 10.2628 18.7885L10.1006 18.8426C9.38619 19.0807 8.61385 19.0807 7.89948 18.8426C7.05704 18.5618 6.16281 18.5137 5.30819 18.6918C5.48634 17.8372 5.43825 16.943 5.15744 16.1006C4.91931 15.3862 4.91931 14.6139 5.15744 13.8995L5.21153 13.7372C5.58741 12.6096 5.58741 11.3905 5.21153 10.2628L5.15744 10.1006C4.91931 9.38619 4.91931 8.61385 5.15744 7.89948Z" fill="black"></path></svg> 