<?xml version="1.0" encoding="UTF-8"?> <svg xmlns="http://www.w3.org/2000/svg" width="24" height="16" viewBox="0 0 24 16" fill="none"><g clip-path="url(#clip0_11509_39774)"><path d="M24 0H0V16H24V0Z" fill="#003399"></path><path d="M11.6867 2.97L11.18 2.6H11.8067L12 2L12.1933 2.6H12.82L12.3133 2.97L12.5067 3.57333L12 3.2L11.4933 3.57333L11.6867 2.97ZM12.3133 13.4L12.5067 14L12 13.63L11.4933 14L11.6867 13.4L11.18 13.03H11.8067L12 12.4267L12.1933 13.03H12.82L12.3133 13.4ZM6.82 8.4L6.31333 8.77333L6.50667 8.17333L6 7.81333H6.62667L6.82 7.21333L7.01333 7.81333H7.64333L7.13333 8.18667L7.32667 8.78667L6.82 8.41333V8.4ZM9.72333 3.66667L9.91667 4.26667L9.41 3.9L8.90333 4.27L9.09667 3.67L8.59 3.3H9.21667L9.41 2.7L9.60333 3.3H10.23L9.72333 3.66667ZM7.33333 5.20667L7.52667 4.60667L7.72333 5.20667H8.33333L7.82667 5.58L8.02 6.18L7.51 5.80667L7 6.18L7.19333 5.58L6.68667 5.20667H7.33333ZM6.69333 10.42H7.33333L7.52667 9.82L7.72333 10.42H8.33333L7.82667 10.7933L8.02 11.3933L7.51 11.0233L7 11.3933L7.19333 10.7933L6.68667 10.42H6.69333ZM9.09667 12.7L8.59 12.3333H9.21667L9.41 11.7333L9.60333 12.3333H10.23L9.72333 12.7L9.91667 13.3L9.41 12.93L8.90333 13.3L9.09667 12.7ZM17.4933 8.18667L17.6867 8.78667L17.18 8.41333L16.6667 8.78667L16.86 8.18667L16.35 7.81333H17L17.1933 7.21333L17.3867 7.81333H18L17.4933 8.18667ZM14.2767 3.66667L13.77 3.3H14.3967L14.59 2.7L14.7833 3.3H15.41L14.9033 3.66667L15.0967 4.26667L14.59 3.9L14.0833 4.27L14.2767 3.67V3.66667ZM16.2767 5.20333L16.4733 4.60333L16.6667 5.20333H17.2933L16.8 5.58L16.9933 6.18L16.4867 5.80667L15.9767 6.18L16.17 5.58L15.6667 5.20667L16.2767 5.20333ZM16.6667 10.42H17.2933L16.8 10.7933L16.9933 11.3933L16.4867 11.0233L15.9767 11.3933L16.17 10.7933L15.6667 10.42H16.2933L16.49 9.82L16.6833 10.42H16.6667ZM15.41 12.3333L14.9033 12.7L15.0967 13.3L14.59 12.93L14.0833 13.3L14.2767 12.7L13.77 12.3333H14.3967L14.59 11.7333L14.7833 12.3333H15.41Z" fill="#FFCC00"></path></g><defs><clipPath id="clip0_11509_39774"><rect width="24" height="16" fill="white"></rect></clipPath></defs></svg> 