<?xml version="1.0" encoding="UTF-8"?> <svg xmlns="http://www.w3.org/2000/svg" width="24" height="24" viewBox="0 0 24 24" fill="none"><path d="M9.28849 2.76283L7.28849 8.76283C7.21226 8.99154 7.25061 9.24296 7.39157 9.43853C7.53254 9.63411 7.75892 9.75 8.00001 9.75H11.25V20.25H9.00001C8.58579 20.25 8.25001 20.5858 8.25001 21C8.25001 21.4142 8.58579 21.75 9.00001 21.75H15C15.4142 21.75 15.75 21.4142 15.75 21C15.75 20.5858 15.4142 20.25 15 20.25H12.75V9.75H16C16.2411 9.75 16.4675 9.63411 16.6084 9.43853C16.7494 9.24296 16.7878 8.99154 16.7115 8.76283L14.7115 2.76283C14.6094 2.45657 14.3228 2.25 14 2.25H10C9.67718 2.25 9.39058 2.45657 9.28849 2.76283ZM10.5406 3.75H13.4594L14.9594 8.25H9.04057L10.5406 3.75Z" fill="black"></path></svg> 