<?xml version="1.0" encoding="UTF-8"?> <svg xmlns="http://www.w3.org/2000/svg" width="24" height="24" viewBox="0 0 24 24" fill="none"><path d="M7 10C7 10.5523 7.44772 11 8 11C8.55229 11 9 10.5523 9 10C9 9.44772 8.55229 9 8 9C7.44772 9 7 9.44772 7 10Z" fill="black"></path><path d="M16 9C15.4477 9 15 9.44772 15 10C15 10.5523 15.4477 11 16 11C16.5523 11 17 10.5523 17 10C17 9.44772 16.5523 9 16 9Z" fill="black"></path><path d="M3.25 13.25H2C1.0335 13.25 0.25 14.0335 0.25 15V16C0.25 16.9665 1.0335 17.75 2 17.75H3.25V19C3.25 19.4142 3.58579 19.75 4 19.75C4.41421 19.75 4.75 19.4142 4.75 19V17.75H19.25V19C19.25 19.4142 19.5858 19.75 20 19.75C20.4142 19.75 20.75 19.4142 20.75 19V17.75H22C22.9665 17.75 23.75 16.9665 23.75 16V15C23.75 14.0335 22.9665 13.25 22 13.25H20.75V7C20.75 6.0335 19.9665 5.25 19 5.25H5C4.0335 5.25 3.25 6.0335 3.25 7V13.25ZM4.75 7C4.75 6.86193 4.86193 6.75 5 6.75H19C19.1381 6.75 19.25 6.86193 19.25 7V13.25H4.75V7ZM1.75 15C1.75 14.8619 1.86193 14.75 2 14.75H22C22.1381 14.75 22.25 14.8619 22.25 15V16C22.25 16.1381 22.1381 16.25 22 16.25H2C1.86193 16.25 1.75 16.1381 1.75 16V15Z" fill="black"></path></svg> 