<?xml version="1.0" encoding="UTF-8"?> <svg xmlns="http://www.w3.org/2000/svg" width="261" height="40" viewBox="0 0 261 40" fill="none"><path d="M53.3007 34.5665L45.9504 12.6034H51.1066L55.9337 26.9529L60.6949 12.6034H65.9169L70.7 26.9529L75.5051 12.6034H80.6613L73.333 34.5665H68.111L63.3059 20.1512L58.5008 34.5665H53.3007Z" fill="white"></path><path d="M92.4039 35.137C90.4146 35.137 88.5789 34.6177 86.8967 33.5791C85.2292 32.5406 83.8981 31.1437 82.9034 29.3884C81.9234 27.6185 81.4334 25.6876 81.4334 23.5959C81.4334 21.4896 81.9234 19.5514 82.9034 17.7815C83.8981 16.0116 85.2292 14.6074 86.8967 13.5688C88.5789 12.5303 90.4146 12.011 92.4039 12.011C94.3933 12.011 96.2217 12.5303 97.8892 13.5688C99.5714 14.6074 100.902 16.0116 101.883 17.7815C102.877 19.5514 103.374 21.4896 103.374 23.5959C103.374 25.6876 102.877 27.6185 101.883 29.3884C100.902 31.1437 99.5714 32.5406 97.8892 33.5791C96.2217 34.6177 94.3933 35.137 92.4039 35.137ZM92.4039 29.8711C93.4571 29.8711 94.4152 29.5858 95.2782 29.0154C96.1559 28.4303 96.8434 27.6623 97.3407 26.7116C97.8526 25.7462 98.1086 24.7076 98.1086 23.5959C98.1086 22.455 97.8526 21.4018 97.3407 20.4364C96.8287 19.471 96.1339 18.703 95.2563 18.1326C94.3786 17.5621 93.4279 17.2769 92.4039 17.2769C91.3508 17.2769 90.3853 17.5694 89.5077 18.1545C88.6447 18.725 87.9572 19.5002 87.4452 20.4803C86.9479 21.4457 86.6992 22.4842 86.6992 23.5959C86.6992 24.7515 86.9552 25.812 87.4672 26.7774C87.9938 27.7282 88.6959 28.4815 89.5735 29.0373C90.4512 29.5932 91.3946 29.8711 92.4039 29.8711Z" fill="white"></path><path d="M116.531 35.137C114.541 35.137 112.706 34.6177 111.023 33.5791C109.356 32.5406 108.025 31.1437 107.03 29.3884C106.05 27.6185 105.56 25.6876 105.56 23.5959C105.56 21.4896 106.05 19.5514 107.03 17.7815C108.025 16.0116 109.356 14.6074 111.023 13.5688C112.706 12.5303 114.541 12.011 116.531 12.011C118.52 12.011 120.348 12.5303 122.016 13.5688C123.698 14.6074 125.029 16.0116 126.009 17.7815C127.004 19.5514 127.501 21.4896 127.501 23.5959C127.501 25.6876 127.004 27.6185 126.009 29.3884C125.029 31.1437 123.698 32.5406 122.016 33.5791C120.348 34.6177 118.52 35.137 116.531 35.137ZM116.531 29.8711C117.584 29.8711 118.542 29.5858 119.405 29.0154C120.283 28.4303 120.97 27.6623 121.467 26.7116C121.979 25.7462 122.235 24.7076 122.235 23.5959C122.235 22.455 121.979 21.4018 121.467 20.4364C120.955 19.471 120.261 18.703 119.383 18.1326C118.505 17.5621 117.555 17.2769 116.531 17.2769C115.477 17.2769 114.512 17.5694 113.634 18.1545C112.771 18.725 112.084 19.5002 111.572 20.4803C111.075 21.4457 110.826 22.4842 110.826 23.5959C110.826 24.7515 111.082 25.812 111.594 26.7774C112.12 27.7282 112.823 28.4815 113.7 29.0373C114.578 29.5932 115.521 29.8711 116.531 29.8711Z" fill="white"></path><path d="M152.922 1.65479V34.5665H147.657V31.758C146.911 32.8112 145.996 33.6376 144.914 34.2374C143.831 34.8371 142.603 35.137 141.228 35.137C139.136 35.137 137.205 34.6177 135.435 33.5791C133.68 32.5406 132.283 31.1437 131.245 29.3884C130.206 27.6185 129.687 25.6876 129.687 23.5959C129.687 21.5042 130.206 19.5734 131.245 17.8035C132.283 16.0335 133.68 14.6293 135.435 13.5908C137.205 12.5522 139.136 12.0329 141.228 12.0329C142.603 12.0329 143.831 12.3328 144.914 12.9325C145.996 13.5323 146.911 14.3587 147.657 15.4119V1.65479H152.922ZM141.294 30.0686C142.42 30.0686 143.429 29.7833 144.321 29.2129C145.228 28.6278 145.93 27.8452 146.428 26.8651C146.94 25.8705 147.196 24.7807 147.196 23.5959C147.196 22.3965 146.94 21.3067 146.428 20.3267C145.93 19.332 145.228 18.5495 144.321 17.979C143.429 17.3939 142.42 17.1013 141.294 17.1013C140.182 17.1013 139.151 17.3939 138.2 17.979C137.249 18.5641 136.488 19.354 135.918 20.3486C135.362 21.3287 135.084 22.4111 135.084 23.5959C135.084 24.7807 135.362 25.8705 135.918 26.8651C136.488 27.8452 137.249 28.6278 138.2 29.2129C139.151 29.7833 140.182 30.0686 141.294 30.0686Z" fill="white"></path><path d="M157.233 12.6254H162.499V14.5781C162.938 14.0662 163.384 13.6566 163.837 13.3494C164.305 13.0422 164.803 12.8155 165.329 12.6692C165.856 12.5083 166.441 12.4279 167.085 12.4279C168.562 12.4279 169.922 12.7424 171.166 13.3714C172.409 14.0003 173.477 14.8926 174.369 16.0482C175.276 14.878 176.351 13.9857 177.594 13.3714C178.838 12.7424 180.198 12.4279 181.676 12.4279C183.519 12.4279 185.193 12.896 186.7 13.8321C188.207 14.7536 189.384 16.0116 190.233 17.606C191.096 19.1858 191.527 20.9118 191.527 22.7841V34.5665H186.261V22.7841C186.261 21.8479 186.064 20.9922 185.669 20.217C185.289 19.4417 184.747 18.8274 184.045 18.3739C183.358 17.9205 182.568 17.6938 181.676 17.6938C180.798 17.6938 180.001 17.9205 179.284 18.3739C178.582 18.8274 178.026 19.4417 177.616 20.217C177.207 20.9922 177.002 21.8479 177.002 22.7841V34.5665H171.736V22.7841C171.736 21.8479 171.531 20.9922 171.122 20.217C170.727 19.4417 170.171 18.8274 169.454 18.3739C168.738 17.9205 167.948 17.6938 167.085 17.6938C166.222 17.6938 165.439 17.9278 164.737 18.3959C164.05 18.8639 163.501 19.5002 163.091 20.3047C162.696 21.0946 162.499 21.9576 162.499 22.8938V34.5665H157.233V12.6254Z" fill="white"></path><path d="M217.38 12.6254V34.5665H212.114V31.7361C211.353 32.7893 210.432 33.623 209.349 34.2374C208.267 34.8371 207.045 35.137 205.685 35.137C203.593 35.137 201.662 34.6177 199.893 33.5791C198.137 32.5406 196.74 31.1437 195.702 29.3884C194.663 27.6185 194.144 25.6876 194.144 23.5959C194.144 21.4896 194.663 19.5514 195.702 17.7815C196.74 16.0116 198.137 14.6074 199.893 13.5688C201.662 12.5303 203.593 12.011 205.685 12.011C207.045 12.011 208.267 12.3182 209.349 12.9325C210.432 13.5323 211.353 14.3587 212.114 15.4119V12.6254H217.38ZM205.751 30.0686C206.877 30.0686 207.886 29.776 208.779 29.1909C209.686 28.6058 210.388 27.8232 210.885 26.8432C211.397 25.8485 211.653 24.7661 211.653 23.5959C211.653 22.3965 211.397 21.3067 210.885 20.3267C210.388 19.332 209.686 18.5495 208.779 17.979C207.886 17.3939 206.877 17.1013 205.751 17.1013C204.624 17.1013 203.586 17.3939 202.635 17.979C201.684 18.5641 200.931 19.354 200.375 20.3486C199.819 21.3287 199.541 22.4111 199.541 23.5959C199.541 24.7661 199.819 25.8485 200.375 26.8432C200.946 27.8232 201.706 28.6058 202.657 29.1909C203.608 29.776 204.639 30.0686 205.751 30.0686Z" fill="white"></path><path d="M235.921 17.957C235.102 17.3866 234.173 17.1013 233.134 17.1013C232.081 17.1013 231.16 17.3793 230.37 17.9351C229.595 18.4909 228.995 19.2443 228.571 20.195C228.146 21.1312 227.934 22.1697 227.934 23.3107V34.5665H222.625V12.6473H227.89V15.2583C228.651 14.2344 229.551 13.4445 230.589 12.8886C231.628 12.3182 232.769 12.0329 234.012 12.0329C234.626 12.0329 235.138 12.0549 235.548 12.0988C235.972 12.1426 236.382 12.2231 236.777 12.3401L235.921 17.957Z" fill="white"></path><path d="M248.64 18.2642L248.618 34.5665H243.352L243.374 18.2642H240.105V12.9984H243.374L243.352 5.73584H248.618L248.64 12.9984H252.941V18.2642H248.64Z" fill="white"></path><path d="M258.279 35.137C257.782 35.137 257.321 35.0126 256.897 34.764C256.487 34.5299 256.158 34.2081 255.91 33.7985C255.676 33.3744 255.559 32.9136 255.559 32.4163C255.559 31.9335 255.676 31.4874 255.91 31.0778C256.158 30.6537 256.487 30.3172 256.897 30.0686C257.321 29.8199 257.782 29.6956 258.279 29.6956C258.762 29.6956 259.208 29.8199 259.618 30.0686C260.042 30.3172 260.378 30.6537 260.627 31.0778C260.876 31.4874 261 31.9335 261 32.4163C261 32.9136 260.876 33.3744 260.627 33.7985C260.378 34.2081 260.042 34.5299 259.618 34.764C259.208 35.0126 258.762 35.137 258.279 35.137Z" fill="white"></path><path fill-rule="evenodd" clip-rule="evenodd" d="M19.3846 9.29676C19.3846 9.05457 19.3924 8.81419 19.4077 8.57587L19.3997 8.53879C19.2597 7.88888 19.1043 7.28457 18.9559 6.7583H19.6768C19.9272 5.69052 20.332 4.68223 20.8665 3.7583H0V39.7583H36V18.8918C35.0761 19.4263 34.0678 19.8311 33 20.0815V20.7432C32.8945 20.5752 32.7901 20.4101 32.6879 20.2486L32.6326 20.161C31.9305 20.3005 31.2046 20.3737 30.4615 20.3737C30.0324 20.3737 29.609 20.3493 29.1926 20.3018C29.425 20.6953 29.6648 21.0785 29.9004 21.4529L30.1215 21.8035C31.225 23.5519 32.3317 25.3054 33 27.5252V36.7583H29.1744C29.3829 36.2566 29.601 35.6872 29.8067 35.0687C30.5474 32.8423 31.2072 29.7518 30.4506 26.8766C29.8043 24.4207 28.4945 22.435 27.3921 20.7638C27.266 20.5726 27.1427 20.3856 27.0233 20.2024C26.9175 20.0401 26.8149 19.8809 26.7156 19.7243C24.9267 19.0816 23.3511 17.9916 22.1236 16.5892C22.4759 18.6255 23.5236 20.3269 24.5099 21.8403C24.6324 22.0284 24.7544 22.2141 24.8753 22.3983C26.0024 24.1144 27.0356 25.6878 27.5494 27.64C28.0818 29.6633 27.6417 32.0728 26.9601 34.1217C26.6279 35.1202 26.2569 35.9788 25.9692 36.5867C25.9409 36.6465 25.9135 36.7037 25.887 36.7583H25.0544C24.6234 35.5215 24.5528 34.3856 24.613 33.2208C24.645 32.602 24.7122 31.9958 24.7853 31.3367C24.7999 31.2046 24.8148 31.0704 24.8297 30.9335C24.9164 30.1352 25 29.2696 25 28.3583C25 26.5784 24.7093 24.9075 23.9774 23.6266C23.199 22.2644 21.9119 21.3583 20.2 21.3583C18.5462 21.3583 17.1556 22.2023 16.2294 23.4989C15.3196 24.7727 14.85 26.4737 14.85 28.3583C14.85 30.2835 15.4385 32.3183 16.1346 34.1197C16.4904 35.0403 16.8883 35.9343 17.2773 36.7583H16.6075C16.5002 36.5899 16.3762 36.3915 16.2398 36.167C15.7606 35.3784 15.1349 34.2772 14.5445 33.0237C13.952 31.7656 13.4101 30.3855 13.0807 29.035C12.7482 27.6716 12.6562 26.4341 12.8684 25.416C13.3322 23.1912 14.4273 21.8562 15.6997 20.5595C15.8702 20.3858 16.0505 20.2077 16.2366 20.0238C17.3767 18.8976 18.7374 17.5535 19.4126 15.6628C19.7523 14.7117 19.8804 13.6502 19.8814 12.5869C19.5585 11.5475 19.3846 10.4424 19.3846 9.29676ZM3 10.5487V6.7583H5.06745L5.08489 6.78845C5.33845 7.22796 5.64474 7.81355 5.88399 8.43144C6.13029 9.06755 6.26562 9.63733 6.26502 10.0729C6.26446 10.4752 6.15726 10.6113 6.06104 10.6885C5.67864 10.9955 5.43022 11.0787 5.28169 11.1056C5.12838 11.1333 4.94788 11.1257 4.64778 11.0485C4.49213 11.0085 4.3246 10.9554 4.11375 10.8859L4.01506 10.8532C3.83618 10.7939 3.62692 10.7245 3.41342 10.6612C3.28271 10.6225 3.14488 10.5843 3 10.5487ZM3 13.6773V17.3099C3.63866 17.3164 4.44239 17.2909 5.29459 17.1829C7.35918 16.9212 9.24595 16.2352 10.1519 14.8763C10.6895 14.0698 10.9258 13.4046 11.0258 12.8129C11.1285 12.2048 11.1011 11.5979 11.0145 10.8574C10.9902 10.6497 10.9604 10.4309 10.9292 10.2011C10.7993 9.24573 10.6434 8.09909 10.7439 6.7583H8.43566C8.52048 6.94863 8.60328 7.14595 8.6816 7.34821C8.98789 8.13928 9.26636 9.10809 9.26501 10.0771C9.26362 11.0794 8.95313 12.214 7.93896 13.0281C7.25342 13.5783 6.55538 13.9237 5.81617 14.0576C5.08174 14.1906 4.43323 14.091 3.90032 13.9539C3.63946 13.8868 3.38948 13.8059 3.17397 13.7349L3 13.6773ZM13.7525 6.7583C13.6425 7.80705 13.7622 8.71699 13.895 9.72555C13.9284 9.97906 13.9626 10.239 13.9941 10.5088C14.0923 11.3474 14.1572 12.2864 13.9839 13.3126C13.8078 14.3553 13.3995 15.4132 12.6481 16.5404C10.9759 19.0486 7.9127 19.8751 5.67181 20.1591C4.66847 20.2863 3.73618 20.3164 3 20.31V22.737C3.17353 22.7156 3.35381 22.702 3.53907 22.6991C4.34301 22.6865 5.2905 22.8774 6.14053 23.5468C6.98563 24.2124 7.5736 25.2243 7.90521 26.5507C8.22055 27.8121 8.29035 28.9955 8.31431 30.045C8.3213 30.3515 8.32468 30.6377 8.32788 30.9094C8.3362 31.6145 8.34338 32.2227 8.40972 32.8382C8.49603 33.6388 8.67577 34.3201 9.04693 34.9582C9.37523 35.5226 9.89578 36.1257 10.768 36.7583H13.1079C12.7058 36.0507 12.2608 35.2155 11.8305 34.3019C11.1855 32.9325 10.5587 31.3552 10.1661 29.7458C9.77676 28.1491 9.59381 26.4239 9.93157 24.8037C10.5678 21.752 12.1282 19.9159 13.5585 18.4583C13.7811 18.2314 13.9937 18.0188 14.1959 17.8165C15.3452 16.6669 16.1592 15.8528 16.5874 14.6538C17.0785 13.2788 16.8983 11.1718 16.4671 9.17078C16.2623 8.22078 16.0189 7.37195 15.8256 6.7583H13.7525ZM21.9276 36.7583C21.6021 35.4443 21.5572 34.2219 21.617 33.0658C21.654 32.3508 21.7327 31.6423 21.806 30.9829L21.8062 30.9812C21.8202 30.8554 21.834 30.7313 21.8472 30.6093C21.9323 29.8264 22 29.097 22 28.3583C22 26.8382 21.7407 25.7591 21.3726 25.115C21.051 24.5522 20.6881 24.3583 20.2 24.3583C19.6538 24.3583 19.1194 24.6143 18.6706 25.2427C18.2054 25.8939 17.85 26.9429 17.85 28.3583C17.85 29.7331 18.2841 31.3593 18.933 33.0383C19.4444 34.3618 20.0558 35.6367 20.6122 36.7583H21.9276ZM6.63255 36.7583C6.57036 36.6619 6.51078 36.5647 6.45375 36.4666C5.80763 35.3559 5.54265 34.2325 5.427 33.1597C5.34395 32.3893 5.3345 31.5715 5.32581 30.8206C5.32299 30.5765 5.32025 30.3395 5.31509 30.1134C5.29285 29.1391 5.22945 28.217 4.99479 27.2784C4.7764 26.4048 4.47062 26.0503 4.28447 25.9037C4.10325 25.761 3.88199 25.6941 3.58593 25.6987C3.39301 25.7018 3.19221 25.7359 3 25.7869V36.7583H6.63255Z" fill="white"></path><path d="M30.4615 3.7583C27.4027 3.7583 24.9231 6.23795 24.9231 9.29676C24.9231 12.3556 27.4027 14.8352 30.4615 14.8352C33.5203 14.8352 36 12.3556 36 9.29676C36 6.23795 33.5203 3.7583 30.4615 3.7583Z" fill="white"></path></svg> 