<?xml version="1.0" encoding="UTF-8"?> <svg xmlns="http://www.w3.org/2000/svg" width="24" height="16" viewBox="0 0 24 16" fill="none"><g clip-path="url(#clip0_11509_39778)"><mask id="mask0_11509_39778" style="mask-type:luminance" maskUnits="userSpaceOnUse" x="0" y="0" width="24" height="16"><rect width="24" height="16" fill="white"></rect></mask><g mask="url(#mask0_11509_39778)"><path fill-rule="evenodd" clip-rule="evenodd" d="M0 0H24V16H0V0Z" fill="#F7FCFF"></path><path fill-rule="evenodd" clip-rule="evenodd" d="M0 9.77783V11.1112H24V9.77783H0Z" fill="#E31D1C"></path><path fill-rule="evenodd" clip-rule="evenodd" d="M0 12.2222V13.5555H24V12.2222H0Z" fill="#E31D1C"></path><path fill-rule="evenodd" clip-rule="evenodd" d="M0 4.88892V6.22225H24V4.88892H0Z" fill="#E31D1C"></path><path fill-rule="evenodd" clip-rule="evenodd" d="M0 14.6666V16H24V14.6666H0Z" fill="#E31D1C"></path><path fill-rule="evenodd" clip-rule="evenodd" d="M0 7.33337V8.66671H24V7.33337H0Z" fill="#E31D1C"></path><path fill-rule="evenodd" clip-rule="evenodd" d="M0 0V1.33333H24V0H0Z" fill="#E31D1C"></path><path fill-rule="evenodd" clip-rule="evenodd" d="M0 2.44446V3.77779H24V2.44446H0Z" fill="#E31D1C"></path><rect width="13.125" height="8.66667" fill="#2E42A5"></rect><path fill-rule="evenodd" clip-rule="evenodd" d="M1.13023 1.95914L0.653873 2.2984L0.814697 1.69466L0.391602 1.31205H0.944221L1.12957 0.819336L1.3469 1.31205H1.81799L1.44784 1.69466L1.59114 2.2984L1.13023 1.95914ZM3.75523 1.95914L3.27887 2.2984L3.4397 1.69466L3.0166 1.31205H3.56922L3.75457 0.819336L3.9719 1.31205H4.44299L4.07284 1.69466L4.21614 2.2984L3.75523 1.95914ZM5.90387 2.2984L6.38023 1.95914L6.84114 2.2984L6.69784 1.69466L7.06799 1.31205H6.5969L6.37957 0.819336L6.19422 1.31205H5.6416L6.0647 1.69466L5.90387 2.2984ZM9.00523 1.95914L8.52887 2.2984L8.6897 1.69466L8.2666 1.31205H8.81922L9.00457 0.819336L9.2219 1.31205H9.69299L9.32284 1.69466L9.46614 2.2984L9.00523 1.95914ZM0.653873 4.96506L1.13023 4.6258L1.59114 4.96506L1.44784 4.36132L1.81799 3.97871H1.3469L1.12957 3.486L0.944221 3.97871H0.391602L0.814697 4.36132L0.653873 4.96506ZM3.75523 4.6258L3.27887 4.96506L3.4397 4.36132L3.0166 3.97871H3.56922L3.75457 3.486L3.9719 3.97871H4.44299L4.07284 4.36132L4.21614 4.96506L3.75523 4.6258ZM5.90387 4.96506L6.38023 4.6258L6.84114 4.96506L6.69784 4.36132L7.06799 3.97871H6.5969L6.37957 3.486L6.19422 3.97871H5.6416L6.0647 4.36132L5.90387 4.96506ZM9.00523 4.6258L8.52887 4.96506L8.6897 4.36132L8.2666 3.97871H8.81922L9.00457 3.486L9.2219 3.97871H9.69299L9.32284 4.36132L9.46614 4.96506L9.00523 4.6258ZM0.653873 7.63173L1.13023 7.29247L1.59114 7.63173L1.44784 7.02799L1.81799 6.64538H1.3469L1.12957 6.15267L0.944221 6.64538H0.391602L0.814697 7.02799L0.653873 7.63173ZM3.75523 7.29247L3.27887 7.63173L3.4397 7.02799L3.0166 6.64538H3.56922L3.75457 6.15267L3.9719 6.64538H4.44299L4.07284 7.02799L4.21614 7.63173L3.75523 7.29247ZM5.90387 7.63173L6.38023 7.29247L6.84114 7.63173L6.69784 7.02799L7.06799 6.64538H6.5969L6.37957 6.15267L6.19422 6.64538H5.6416L6.0647 7.02799L5.90387 7.63173ZM9.00523 7.29247L8.52887 7.63173L8.6897 7.02799L8.2666 6.64538H8.81922L9.00457 6.15267L9.2219 6.64538H9.69299L9.32284 7.02799L9.46614 7.63173L9.00523 7.29247ZM11.1539 2.2984L11.6302 1.95914L12.0911 2.2984L11.9478 1.69466L12.318 1.31205H11.8469L11.6296 0.819336L11.4442 1.31205H10.8916L11.3147 1.69466L11.1539 2.2984ZM11.6302 4.6258L11.1539 4.96506L11.3147 4.36132L10.8916 3.97871H11.4442L11.6296 3.486L11.8469 3.97871H12.318L11.9478 4.36132L12.0911 4.96506L11.6302 4.6258ZM11.1539 7.63173L11.6302 7.29247L12.0911 7.63173L11.9478 7.02799L12.318 6.64538H11.8469L11.6296 6.15267L11.4442 6.64538H10.8916L11.3147 7.02799L11.1539 7.63173ZM2.44273 3.29247L1.96637 3.63173L2.1272 3.02799L1.7041 2.64538H2.25672L2.44207 2.15267L2.6594 2.64538H3.13049L2.76034 3.02799L2.90364 3.63173L2.44273 3.29247ZM4.59137 3.63173L5.06773 3.29247L5.52864 3.63173L5.38534 3.02799L5.75549 2.64538H5.2844L5.06707 2.15267L4.88172 2.64538H4.3291L4.7522 3.02799L4.59137 3.63173ZM7.69273 3.29247L7.21637 3.63173L7.3772 3.02799L6.9541 2.64538H7.50672L7.69207 2.15267L7.9094 2.64538H8.38049L8.01034 3.02799L8.15364 3.63173L7.69273 3.29247ZM1.96637 6.2984L2.44273 5.95914L2.90364 6.2984L2.76034 5.69466L3.13049 5.31205H2.6594L2.44207 4.81934L2.25672 5.31205H1.7041L2.1272 5.69466L1.96637 6.2984ZM5.06773 5.95914L4.59137 6.2984L4.7522 5.69466L4.3291 5.31205H4.88172L5.06707 4.81934L5.2844 5.31205H5.75549L5.38534 5.69466L5.52864 6.2984L5.06773 5.95914ZM7.21637 6.2984L7.69273 5.95914L8.15364 6.2984L8.01034 5.69466L8.38049 5.31205H7.9094L7.69207 4.81934L7.50672 5.31205H6.9541L7.3772 5.69466L7.21637 6.2984ZM10.3177 3.29247L9.84137 3.63173L10.0022 3.02799L9.5791 2.64538H10.1317L10.3171 2.15267L10.5344 2.64538H11.0055L10.6353 3.02799L10.7786 3.63173L10.3177 3.29247ZM9.84137 6.2984L10.3177 5.95914L10.7786 6.2984L10.6353 5.69466L11.0055 5.31205H10.5344L10.3171 4.81934L10.1317 5.31205H9.5791L10.0022 5.69466L9.84137 6.2984Z" fill="#F7FCFF"></path></g></g><defs><clipPath id="clip0_11509_39778"><rect width="24" height="16" fill="white"></rect></clipPath></defs></svg> 