<?xml version="1.0" encoding="UTF-8"?> <svg xmlns="http://www.w3.org/2000/svg" width="24" height="24" viewBox="0 0 24 24" fill="none"><path d="M12 9C12.5523 9 13 8.55228 13 8C13 7.44772 12.5523 7 12 7C11.4477 7 11 7.44772 11 8C11 8.55228 11.4477 9 12 9Z" fill="black"></path><path d="M13 14C13 13.4477 12.5523 13 12 13C11.4477 13 11 13.4477 11 14C11 14.5523 11.4477 15 12 15C12.5523 15 13 14.5523 13 14Z" fill="black"></path><path d="M3.25 6V16C3.25 16.9665 4.0335 17.75 5 17.75H5.95943L5.28849 19.7628C5.1575 20.1558 5.36987 20.5805 5.76283 20.7115C6.15579 20.8425 6.58053 20.6301 6.71151 20.2372L7.54057 17.75H16.4594L17.2885 20.2372C17.4195 20.6301 17.8442 20.8425 18.2372 20.7115C18.6301 20.5805 18.8425 20.1558 18.7115 19.7628L18.0406 17.75H19C19.9665 17.75 20.75 16.9665 20.75 16V6C20.75 5.0335 19.9665 4.25 19 4.25H5C4.0335 4.25 3.25 5.0335 3.25 6ZM5 5.75H19C19.1381 5.75 19.25 5.86193 19.25 6V10.25H4.75V6C4.75 5.86193 4.86193 5.75 5 5.75ZM19.25 16C19.25 16.1381 19.1381 16.25 19 16.25H5C4.86193 16.25 4.75 16.1381 4.75 16V11.75H19.25V16Z" fill="black"></path></svg> 