<?xml version="1.0" encoding="UTF-8"?> <svg xmlns="http://www.w3.org/2000/svg" width="27" height="36" viewBox="0 0 27 36" fill="none"><path d="M5.2088 4.44027L1.1145 18.9165C0.561689 20.8711 2.03014 22.8125 4.0614 22.8125H5.25779L2.23581 33.3894C2.03667 34.0864 2.44025 34.8129 3.13724 35.012C3.83422 35.2111 4.56067 34.8076 4.75981 34.1106L5.03928 33.1324L13.9978 28.4174L22.9563 33.1324L23.2358 34.1106C23.4349 34.8076 24.1614 35.2111 24.8584 35.012C25.5554 34.8129 25.9589 34.0864 25.7598 33.3894L22.7378 22.8125H23.9342C25.9655 22.8125 27.4339 20.8711 26.8811 18.9165L22.7868 4.44027C22.2008 2.3681 20.3094 0.9375 18.156 0.9375H9.83965C7.6862 0.9375 5.79487 2.3681 5.2088 4.44027ZM20.6142 24.9351L21.9588 29.641L16.8159 26.9342L20.6142 24.9351ZM13.9978 25.451L8.98462 22.8125H19.011L13.9978 25.451ZM6.03683 29.641L7.38138 24.9351L11.1798 26.9342L6.03683 29.641ZM9.83965 3.5625H18.156C19.1348 3.5625 19.9945 4.21277 20.2609 5.15467L24.3552 19.6309C24.4342 19.9102 24.2244 20.1875 23.9342 20.1875H4.0614C3.77123 20.1875 3.56144 19.9102 3.64042 19.6309L7.73472 5.15467C8.00111 4.21277 8.86081 3.5625 9.83965 3.5625Z" fill="#f59a57"></path><path d="M19.2426 17.2329C19.7855 16.7526 19.8363 15.9231 19.356 15.3802C18.9427 14.9283 18.4386 14.5553 17.9132 14.2449C17.0144 13.7137 15.6924 13.1873 13.9979 13.1873C12.3034 13.1873 10.9814 13.7137 10.0826 14.2449C9.55589 14.5561 9.05662 14.9301 8.63987 15.3802C8.15959 15.9231 8.21037 16.7526 8.7533 17.2329C9.29322 17.7105 10.1166 17.6628 10.5981 17.1283C10.8506 16.8913 11.1186 16.6817 11.418 16.5048C12 16.1609 12.8655 15.8123 13.9979 15.8123C15.1304 15.8123 15.9959 16.1609 16.5778 16.5048C17.0881 16.8063 17.3775 17.1067 17.3978 17.1283C17.8792 17.6628 18.7026 17.7105 19.2426 17.2329Z" fill="#f59a57"></path></svg> 