<?xml version="1.0" encoding="UTF-8"?> <svg xmlns="http://www.w3.org/2000/svg" width="42" height="26" viewBox="0 0 42 26" fill="none"><path d="M14 8.5C14 9.4665 14.7835 10.25 15.75 10.25C16.7165 10.25 17.5 9.4665 17.5 8.5C17.5 7.5335 16.7165 6.75 15.75 6.75C14.7835 6.75 14 7.5335 14 8.5Z" fill="#AA5D31"></path><path d="M26.25 6.75C25.2835 6.75 24.5 7.5335 24.5 8.5C24.5 9.4665 25.2835 10.25 26.25 10.25C27.2165 10.25 28 9.4665 28 8.5C28 7.5335 27.2165 6.75 26.25 6.75Z" fill="#AA5D31"></path><path d="M5.6875 7.1875L3.5 7.1875C1.80863 7.1875 0.4375 8.55863 0.4375 10.25V19C0.4375 20.6914 1.80863 22.0625 3.5 22.0625H5.6875V24.25C5.6875 24.9749 6.27513 25.5625 7 25.5625C7.72487 25.5625 8.3125 24.9749 8.3125 24.25V22.0625H33.6875V24.25C33.6875 24.9749 34.2751 25.5625 35 25.5625C35.7249 25.5625 36.3125 24.9749 36.3125 24.25V22.0625H38.5C40.1914 22.0625 41.5625 20.6914 41.5625 19V10.25C41.5625 8.55863 40.1914 7.1875 38.5 7.1875H36.3125V3.25C36.3125 1.55863 34.9414 0.1875 33.25 0.1875H8.75C7.05863 0.1875 5.6875 1.55863 5.6875 3.25V7.1875ZM8.3125 3.25C8.3125 3.00838 8.50838 2.8125 8.75 2.8125H33.25C33.4916 2.8125 33.6875 3.00838 33.6875 3.25V7.48221C32.6528 7.97373 31.9375 9.02833 31.9375 10.25V14.1875H10.0625V10.25C10.0625 9.02833 9.34716 7.97373 8.3125 7.48221V3.25ZM35 19.4375C34.7584 19.4375 34.5625 19.2416 34.5625 19V10.25C34.5625 10.0084 34.7584 9.8125 35 9.8125H38.5C38.7416 9.8125 38.9375 10.0084 38.9375 10.25V19C38.9375 19.2416 38.7416 19.4375 38.5 19.4375H35ZM7.4375 19C7.4375 19.2416 7.24162 19.4375 7 19.4375H3.5C3.25838 19.4375 3.0625 19.2416 3.0625 19V10.25C3.0625 10.0084 3.25838 9.8125 3.5 9.8125L7 9.8125C7.24162 9.8125 7.4375 10.0084 7.4375 10.25V19ZM10.0625 19.4375V16.8125H19.6875V19.4375H10.0625ZM22.3125 16.8125H31.9375V19.4375H22.3125V16.8125Z" fill="#AA5D31"></path></svg> 