<?xml version="1.0" encoding="UTF-8"?> <svg xmlns="http://www.w3.org/2000/svg" width="36" height="32" viewBox="0 0 36 32" fill="none"><path d="M4.87501 0.6875C4.19759 0.6875 3.63147 1.20304 3.56824 1.87749L3.20131 5.79136C1.81639 6.99307 0.937505 8.76888 0.937505 10.75C0.937505 12.2884 1.46815 13.7049 2.35455 14.8235L0.943235 29.8775C0.908755 30.2453 1.03086 30.6106 1.27958 30.8837C1.5283 31.1568 1.8806 31.3125 2.25001 31.3125H12.75C13.1194 31.3125 13.4717 31.1568 13.7204 30.8837C13.9691 30.6106 14.0913 30.2453 14.0568 29.8775L12.6455 14.8235C13.5319 13.7049 14.0625 12.2884 14.0625 10.75C14.0625 8.76888 13.1836 6.99307 11.7987 5.79136L11.4318 1.87749C11.3685 1.20304 10.8024 0.6875 10.125 0.6875H4.87501ZM5.7625 6.59475L6.07021 3.3125H8.9298L9.23751 6.59475C9.27309 6.97431 9.47195 7.31964 9.78236 7.54095C10.7868 8.25707 11.4375 9.42757 11.4375 10.75C11.4375 11.8093 11.0209 12.7686 10.3398 13.4775C10.0754 13.7527 9.94388 14.1294 9.9795 14.5094L11.3087 28.6875H3.69131L5.02051 14.5094C5.05613 14.1294 4.9246 13.7527 4.66019 13.4775C3.97911 12.7686 3.56251 11.8093 3.56251 10.75C3.56251 9.42757 4.21317 8.25707 5.21765 7.54095C5.52806 7.31964 5.72692 6.97431 5.7625 6.59475Z" fill="#47593F"></path><path d="M23.25 7.6875C22.5251 7.6875 21.9375 8.27513 21.9375 9V13.8515C21.071 14.2576 20.2915 14.8248 19.684 15.5965C18.8628 16.6399 18.4375 17.9543 18.4375 19.5C18.4375 21.7609 19.4382 24.1825 20.3324 25.9242C20.8799 26.9907 21.4913 28.0329 22.1824 29.0135C22.4289 29.3575 22.8268 29.5625 23.25 29.5625H30.25C30.6878 29.5625 31.0967 29.3443 31.3404 28.9806C32.017 27.9565 32.624 26.8822 33.1735 25.7853C34.0546 24.0263 35.0625 21.5973 35.0625 19.5C35.0625 17.9543 34.6372 16.6399 33.816 15.5965C33.2085 14.8248 32.429 14.2576 31.5625 13.8515V9C31.5625 8.27513 30.9749 7.6875 30.25 7.6875H23.25ZM29.529 26.9375H23.9485C23.6292 26.4446 23.147 25.6589 22.6676 24.7253C21.8118 23.0585 21.0625 21.1051 21.0625 19.5C21.0625 18.4547 21.341 17.7356 21.7467 17.2201C22.1619 16.6926 22.7929 16.2745 23.6621 15.9871C24.1995 15.8094 24.5625 15.3071 24.5625 14.741V10.3125H28.9375V14.741C28.9375 15.3071 29.3005 15.8094 29.8379 15.9871C30.7071 16.2745 31.3381 16.6926 31.7533 17.2201C32.159 17.7356 32.4375 18.4547 32.4375 19.5C32.4375 20.9292 31.6954 22.8752 30.8265 24.6096C30.3406 25.5796 29.8516 26.4129 29.529 26.9375Z" fill="#47593F"></path></svg> 