<?xml version="1.0" encoding="UTF-8"?> <svg xmlns="http://www.w3.org/2000/svg" xmlns:xlink="http://www.w3.org/1999/xlink" width="1684" zoomAndPan="magnify" viewBox="0 0 1263 632.249985" height="843" preserveAspectRatio="xMidYMid meet" version="1.0"><defs><g></g><clipPath id="9b6e235c6d"><path d="M 1114.429688 285.949219 L 1196.234375 285.949219 L 1196.234375 367.753906 L 1114.429688 367.753906 Z M 1114.429688 285.949219 " clip-rule="nonzero"></path></clipPath><clipPath id="27eb1bc4a5"><path d="M 1155.332031 285.949219 C 1132.742188 285.949219 1114.429688 304.261719 1114.429688 326.851562 C 1114.429688 349.441406 1132.742188 367.753906 1155.332031 367.753906 C 1177.921875 367.753906 1196.234375 349.441406 1196.234375 326.851562 C 1196.234375 304.261719 1177.921875 285.949219 1155.332031 285.949219 Z M 1155.332031 285.949219 " clip-rule="nonzero"></path></clipPath><clipPath id="1bd36dd9e5"><path d="M 423.609375 443.707031 L 851.347656 443.707031 L 851.347656 558.320312 L 423.609375 558.320312 Z M 423.609375 443.707031 " clip-rule="nonzero"></path></clipPath><clipPath id="b02803dd37"><path d="M 440.839844 443.707031 L 833.921875 443.707031 C 838.492188 443.707031 842.875 445.519531 846.105469 448.75 C 849.335938 451.984375 851.152344 456.363281 851.152344 460.933594 L 851.152344 541.078125 C 851.152344 545.648438 849.335938 550.03125 846.105469 553.261719 C 842.875 556.492188 838.492188 558.308594 833.921875 558.308594 L 440.839844 558.308594 C 436.269531 558.308594 431.886719 556.492188 428.65625 553.261719 C 425.425781 550.03125 423.609375 545.648438 423.609375 541.078125 L 423.609375 460.933594 C 423.609375 456.363281 425.425781 451.984375 428.65625 448.75 C 431.886719 445.519531 436.269531 443.707031 440.839844 443.707031 Z M 440.839844 443.707031 " clip-rule="nonzero"></path></clipPath></defs><g clip-path="url(#9b6e235c6d)"><g clip-path="url(#27eb1bc4a5)"><path fill="#ffffff" d="M 1114.429688 285.949219 L 1196.234375 285.949219 L 1196.234375 367.753906 L 1114.429688 367.753906 Z M 1114.429688 285.949219 " fill-opacity="1" fill-rule="nonzero"></path></g></g><g clip-path="url(#1bd36dd9e5)"><g clip-path="url(#b02803dd37)"><path stroke-linecap="butt" transform="matrix(0.749111, 0, 0, 0.749111, 423.609931, 443.705662)" fill="none" stroke-linejoin="miter" d="M 23.000472 0.00182821 L 547.731634 0.00182821 C 553.832614 0.00182821 559.683297 2.421362 563.995698 6.733764 C 568.3081 11.05138 570.732848 16.896848 570.732848 22.997828 L 570.732848 129.983977 C 570.732848 136.084957 568.3081 141.93564 563.995698 146.248041 C 559.683297 150.560443 553.832614 152.985191 547.731634 152.985191 L 23.000472 152.985191 C 16.899493 152.985191 11.04881 150.560443 6.736408 146.248041 C 2.424006 141.93564 -0.000741859 136.084957 -0.000741859 129.983977 L -0.000741859 22.997828 C -0.000741859 16.896848 2.424006 11.05138 6.736408 6.733764 C 11.04881 2.421362 16.899493 0.00182821 23.000472 0.00182821 Z M 23.000472 0.00182821 " stroke="#ffffff" stroke-width="2" stroke-opacity="1" stroke-miterlimit="4"></path></g></g><g fill="#ffffff" fill-opacity="1"><g transform="translate(159.450704, 359.73155)"><g><path d="M 22.9375 -213.25 L 195.265625 -213.25 L 195.265625 -162.109375 L 91.4375 -162.109375 L 91.4375 -125.53125 L 180.703125 -125.53125 L 180.703125 -76.5625 L 91.4375 -76.5625 L 91.4375 0 L 22.9375 0 Z M 22.9375 -213.25 "></path></g></g></g><g fill="#ffffff" fill-opacity="1"><g transform="translate(334.555289, 359.73155)"><g><path d="M 118.09375 -167.6875 C 122.84375 -167.6875 127.078125 -167.117188 130.796875 -165.984375 C 134.515625 -164.847656 136.375 -164.175781 136.375 -163.96875 L 136.375 -112.203125 L 116.546875 -112.203125 C 103.734375 -112.203125 94.484375 -108.894531 88.796875 -102.28125 C 83.117188 -95.664062 80.28125 -85.851562 80.28125 -72.84375 L 80.28125 0 L 18.59375 0 L 18.59375 -163.65625 L 69.125 -163.65625 L 73.15625 -138.859375 C 76.875 -148.359375 82.757812 -155.535156 90.8125 -160.390625 C 98.875 -165.253906 107.96875 -167.6875 118.09375 -167.6875 Z M 118.09375 -167.6875 "></path></g></g></g><g fill="#ffffff" fill-opacity="1"><g transform="translate(440.545676, 359.73155)"><g><path d="M 103.21875 -167.375 C 133.175781 -167.375 156.054688 -160.347656 171.859375 -146.296875 C 187.671875 -132.242188 195.578125 -110.753906 195.578125 -81.828125 L 195.578125 -71.296875 L 72.84375 -71.296875 C 72.84375 -59.515625 75.472656 -50.625 80.734375 -44.625 C 86.003906 -38.632812 94.320312 -35.640625 105.6875 -35.640625 C 116.019531 -35.640625 123.613281 -37.804688 128.46875 -42.140625 C 133.332031 -46.484375 135.765625 -52.273438 135.765625 -59.515625 L 195.578125 -59.515625 C 195.578125 -39.671875 188.035156 -24.171875 172.953125 -13.015625 C 157.867188 -1.859375 135.863281 3.71875 106.9375 3.71875 C 76.5625 3.71875 53.003906 -3.359375 36.265625 -17.515625 C 19.523438 -31.671875 11.15625 -53.109375 11.15625 -81.828125 C 11.15625 -109.929688 19.316406 -131.210938 35.640625 -145.671875 C 51.960938 -160.140625 74.488281 -167.375 103.21875 -167.375 Z M 105.6875 -128.015625 C 86.269531 -128.015625 75.425781 -118.816406 73.15625 -100.421875 L 133.28125 -100.421875 C 133.28125 -108.898438 130.851562 -115.617188 126 -120.578125 C 121.144531 -125.535156 114.375 -128.015625 105.6875 -128.015625 Z M 105.6875 -128.015625 "></path></g></g></g><g fill="#ffffff" fill-opacity="1"><g transform="translate(615.650261, 359.73155)"><g><path d="M 137.625 0 L 132.34375 -23.25 C 120.363281 -5.269531 103.007812 3.71875 80.28125 3.71875 C 58.164062 3.71875 41.113281 -3.507812 29.125 -17.96875 C 17.144531 -32.4375 11.15625 -53.828125 11.15625 -82.140625 C 11.15625 -110.242188 17.144531 -131.472656 29.125 -145.828125 C 41.113281 -160.191406 58.164062 -167.375 80.28125 -167.375 C 99.082031 -167.375 114.375 -161.070312 126.15625 -148.46875 L 126.15625 -224.71875 L 187.828125 -224.71875 L 187.828125 0 Z M 99.5 -121.8125 C 81.726562 -121.8125 72.84375 -111.171875 72.84375 -89.890625 L 72.84375 -73.453125 C 72.84375 -52.378906 81.726562 -41.84375 99.5 -41.84375 C 108.59375 -41.84375 115.410156 -45.046875 119.953125 -51.453125 C 124.492188 -57.859375 126.765625 -66.226562 126.765625 -76.5625 L 126.765625 -86.78125 C 126.765625 -97.113281 124.492188 -105.535156 119.953125 -112.046875 C 115.410156 -118.554688 108.59375 -121.8125 99.5 -121.8125 Z M 99.5 -121.8125 "></path></g></g></g><g fill="#ffffff" fill-opacity="1"><g transform="translate(790.754846, 359.73155)"><g><path d="M 99.5 -167.375 C 124.5 -167.375 144.847656 -163.1875 160.546875 -154.8125 C 176.253906 -146.445312 184.109375 -132.863281 184.109375 -114.0625 L 184.109375 -50.21875 C 184.109375 -46.695312 184.9375 -43.800781 186.59375 -41.53125 C 188.25 -39.257812 190.726562 -38.125 194.03125 -38.125 L 205.1875 -38.125 L 205.1875 -2.484375 C 204.570312 -2.066406 202.972656 -1.390625 200.390625 -0.453125 C 197.804688 0.472656 194.132812 1.398438 189.375 2.328125 C 184.625 3.253906 179.148438 3.71875 172.953125 3.71875 C 160.972656 3.71875 151.109375 1.910156 143.359375 -1.703125 C 135.609375 -5.316406 130.285156 -10.328125 127.390625 -16.734375 C 119.535156 -10.535156 110.753906 -5.578125 101.046875 -1.859375 C 91.335938 1.859375 79.972656 3.71875 66.953125 3.71875 C 28.515625 3.71875 9.296875 -11.570312 9.296875 -42.15625 C 9.296875 -58.0625 13.582031 -70.195312 22.15625 -78.5625 C 30.738281 -86.9375 43.085938 -92.671875 59.203125 -95.765625 C 75.316406 -98.867188 96.394531 -100.421875 122.4375 -100.421875 L 122.4375 -108.484375 C 122.4375 -114.890625 120.210938 -119.742188 115.765625 -123.046875 C 111.328125 -126.359375 105.59375 -128.015625 98.5625 -128.015625 C 92.15625 -128.015625 86.628906 -126.875 81.984375 -124.59375 C 77.335938 -122.320312 75.015625 -118.707031 75.015625 -113.75 L 75.015625 -112.515625 L 14.265625 -112.515625 C 14.054688 -113.546875 13.953125 -114.992188 13.953125 -116.859375 C 13.953125 -132.347656 21.335938 -144.640625 36.109375 -153.734375 C 50.878906 -162.828125 72.007812 -167.375 99.5 -167.375 Z M 122.4375 -71.296875 C 104.863281 -71.296875 91.894531 -69.382812 83.53125 -65.5625 C 75.164062 -61.738281 70.984375 -56.625 70.984375 -50.21875 C 70.984375 -39.882812 78.007812 -34.71875 92.0625 -34.71875 C 100.113281 -34.71875 107.1875 -36.882812 113.28125 -41.21875 C 119.382812 -45.5625 122.4375 -50.9375 122.4375 -57.34375 Z M 122.4375 -71.296875 "></path></g></g></g><g fill="#ffffff" fill-opacity="1"><g transform="translate(965.859474, 359.73155)"><g><path d="M 118.09375 -167.6875 C 122.84375 -167.6875 127.078125 -167.117188 130.796875 -165.984375 C 134.515625 -164.847656 136.375 -164.175781 136.375 -163.96875 L 136.375 -112.203125 L 116.546875 -112.203125 C 103.734375 -112.203125 94.484375 -108.894531 88.796875 -102.28125 C 83.117188 -95.664062 80.28125 -85.851562 80.28125 -72.84375 L 80.28125 0 L 18.59375 0 L 18.59375 -163.65625 L 69.125 -163.65625 L 73.15625 -138.859375 C 76.875 -148.359375 82.757812 -155.535156 90.8125 -160.390625 C 98.875 -165.253906 107.96875 -167.6875 118.09375 -167.6875 Z M 118.09375 -167.6875 "></path></g></g></g><g fill="#ffffff" fill-opacity="1"><g transform="translate(482.811794, 527.254953)"><g><path d="M 45.902344 -5.75 L 15.273438 -5.75 L 15.273438 -25.457031 L 42.621094 -25.457031 L 42.621094 -31.203125 L 15.273438 -31.203125 L 15.273438 -50.914062 L 45.082031 -50.914062 L 45.082031 -56.660156 L 8.210938 -56.660156 L 8.210938 0 L 45.902344 0 Z M 45.902344 -5.75 "></path></g></g></g><g fill="#ffffff" fill-opacity="1"><g transform="translate(521.565192, 527.254953)"><g><path d="M 25.785156 -57.8125 C 15.355469 -57.8125 6.898438 -51.652344 6.898438 -41.878906 C 6.898438 -32.519531 13.878906 -28.496094 23.898438 -26.195312 C 33.832031 -23.898438 37.773438 -20.777344 37.773438 -13.878906 C 37.773438 -7.964844 32.519531 -4.433594 26.03125 -4.433594 C 18.640625 -4.433594 13.46875 -8.621094 11.824219 -16.09375 L 4.269531 -16.09375 C 5.5 -5.171875 13.386719 1.148438 25.867188 1.148438 C 36.789062 1.148438 45.328125 -5.253906 45.328125 -15.191406 C 45.328125 -24.800781 39.089844 -29.890625 26.605469 -32.765625 C 17.984375 -34.734375 14.453125 -37.363281 14.453125 -43.523438 C 14.453125 -49.433594 19.214844 -52.226562 25.210938 -52.226562 C 32.355469 -52.226562 36.542969 -48.121094 37.199219 -40.976562 L 44.753906 -40.976562 C 43.6875 -50.667969 37.527344 -57.8125 25.785156 -57.8125 Z M 25.785156 -57.8125 "></path></g></g></g><g fill="#ffffff" fill-opacity="1"><g transform="translate(560.154396, 527.254953)"><g><path d="M 50.257812 -50.914062 L 50.257812 -56.660156 L 2.792969 -56.660156 L 2.792969 -50.914062 L 22.992188 -50.914062 L 22.992188 0 L 30.054688 0 L 30.054688 -50.914062 Z M 50.257812 -50.914062 "></path></g></g></g><g fill="#ffffff" fill-opacity="1"><g transform="translate(600.960517, 527.254953)"><g><path d="M 8.292969 -9.363281 C 5.253906 -9.363281 3.039062 -7.144531 3.039062 -4.105469 C 3.039062 -1.066406 5.253906 1.148438 8.292969 1.148438 C 11.332031 1.148438 13.550781 -1.066406 13.550781 -4.105469 C 13.550781 -7.144531 11.332031 -9.363281 8.292969 -9.363281 Z M 8.292969 -9.363281 "></path></g></g></g><g fill="#ffffff" fill-opacity="1"><g transform="translate(609.580424, 527.254953)"><g></g></g></g><g fill="#ffffff" fill-opacity="1"><g transform="translate(617.871856, 527.254953)"><g><path d="M 15.191406 -5.75 L 29.398438 -19.789062 C 39.007812 -29.234375 43.195312 -34.488281 43.195312 -42.207031 C 43.195312 -50.667969 37.527344 -57.8125 25.949219 -57.8125 C 14.617188 -57.8125 7.554688 -51.570312 6.40625 -39.746094 L 6.324219 -38.925781 L 13.386719 -38.925781 L 13.46875 -39.746094 C 14.289062 -47.710938 17.820312 -52.226562 25.128906 -52.226562 C 31.945312 -52.226562 35.3125 -47.21875 35.3125 -41.386719 C 35.3125 -35.886719 32.109375 -31.78125 25.457031 -24.964844 L 4.925781 -4.023438 L 4.925781 0 L 42.949219 0 L 42.949219 -5.75 Z M 15.191406 -5.75 "></path></g></g></g><g fill="#ffffff" fill-opacity="1"><g transform="translate(656.050535, 527.254953)"><g><path d="M 23.8125 -57.8125 C 8.210938 -57.8125 3.367188 -44.835938 3.367188 -28.332031 C 3.367188 -11.90625 8.210938 1.148438 23.8125 1.148438 C 39.417969 1.148438 44.261719 -11.90625 44.261719 -28.332031 C 44.261719 -44.835938 39.417969 -57.8125 23.8125 -57.8125 Z M 23.8125 -4.433594 C 14.78125 -4.433594 11.25 -13.550781 11.25 -28.332031 C 11.25 -43.195312 14.78125 -52.226562 23.8125 -52.226562 C 32.847656 -52.226562 36.378906 -43.195312 36.378906 -28.332031 C 36.378906 -13.550781 32.847656 -4.433594 23.8125 -4.433594 Z M 23.8125 -4.433594 "></path></g></g></g><g fill="#ffffff" fill-opacity="1"><g transform="translate(694.229215, 527.254953)"><g><path d="M 15.191406 -5.75 L 29.398438 -19.789062 C 39.007812 -29.234375 43.195312 -34.488281 43.195312 -42.207031 C 43.195312 -50.667969 37.527344 -57.8125 25.949219 -57.8125 C 14.617188 -57.8125 7.554688 -51.570312 6.40625 -39.746094 L 6.324219 -38.925781 L 13.386719 -38.925781 L 13.46875 -39.746094 C 14.289062 -47.710938 17.820312 -52.226562 25.128906 -52.226562 C 31.945312 -52.226562 35.3125 -47.21875 35.3125 -41.386719 C 35.3125 -35.886719 32.109375 -31.78125 25.457031 -24.964844 L 4.925781 -4.023438 L 4.925781 0 L 42.949219 0 L 42.949219 -5.75 Z M 15.191406 -5.75 "></path></g></g></g><g fill="#ffffff" fill-opacity="1"><g transform="translate(732.407884, 527.254953)"><g><path d="M 23.8125 -57.8125 C 8.210938 -57.8125 3.367188 -44.835938 3.367188 -28.332031 C 3.367188 -11.90625 8.210938 1.148438 23.8125 1.148438 C 39.417969 1.148438 44.261719 -11.90625 44.261719 -28.332031 C 44.261719 -44.835938 39.417969 -57.8125 23.8125 -57.8125 Z M 23.8125 -4.433594 C 14.78125 -4.433594 11.25 -13.550781 11.25 -28.332031 C 11.25 -43.195312 14.78125 -52.226562 23.8125 -52.226562 C 32.847656 -52.226562 36.378906 -43.195312 36.378906 -28.332031 C 36.378906 -13.550781 32.847656 -4.433594 23.8125 -4.433594 Z M 23.8125 -4.433594 "></path></g></g></g></svg> 